<mxfile host="Electron" agent="Mozilla/5.0 (Windows NT 10.0; Win64; x64) AppleWebKit/537.36 (KHTML, like Gecko) draw.io/28.1.2 Chrome/138.0.7204.243 Electron/37.4.0 Safari/537.36" version="28.1.2" pages="15">
  <diagram id="P6KYQdcxMngtg81rHLjj" name="fc if-1">
    <mxGraphModel dx="874" dy="682" grid="1" gridSize="10" guides="1" tooltips="1" connect="1" arrows="1" fold="1" page="1" pageScale="1" pageWidth="291" pageHeight="413" math="0" shadow="0">
      <root>
        <mxCell id="Z8sNnp-64u_m1EAmHye_-0" />
        <mxCell id="Z8sNnp-64u_m1EAmHye_-1" parent="Z8sNnp-64u_m1EAmHye_-0" />
        <mxCell id="Z8sNnp-64u_m1EAmHye_-2" style="edgeStyle=orthogonalEdgeStyle;rounded=0;orthogonalLoop=1;jettySize=auto;html=1;exitX=0.5;exitY=1;exitDx=0;exitDy=0;entryX=0.5;entryY=0;entryDx=0;entryDy=0;exitPerimeter=0;endArrow=block;endFill=1;" parent="Z8sNnp-64u_m1EAmHye_-1" source="Z8sNnp-64u_m1EAmHye_-20" target="YJfQfWBxavon4rAGW0i5-0" edge="1">
          <mxGeometry relative="1" as="geometry">
            <mxPoint x="140" y="80" as="sourcePoint" />
            <mxPoint x="140" y="120" as="targetPoint" />
          </mxGeometry>
        </mxCell>
        <mxCell id="Z8sNnp-64u_m1EAmHye_-16" value="True" style="text;html=1;strokeColor=none;fillColor=none;align=right;verticalAlign=middle;whiteSpace=wrap;rounded=0;" parent="Z8sNnp-64u_m1EAmHye_-1" vertex="1">
          <mxGeometry x="100" y="200" width="40" height="20" as="geometry" />
        </mxCell>
        <mxCell id="Z8sNnp-64u_m1EAmHye_-20" value="start" style="strokeWidth=1;html=1;shape=mxgraph.flowchart.terminator;whiteSpace=wrap;fillColor=none;" parent="Z8sNnp-64u_m1EAmHye_-1" vertex="1">
          <mxGeometry x="100" y="40" width="80" height="40" as="geometry" />
        </mxCell>
        <mxCell id="Z8sNnp-64u_m1EAmHye_-21" value="end" style="strokeWidth=1;html=1;shape=mxgraph.flowchart.terminator;whiteSpace=wrap;fillColor=none;" parent="Z8sNnp-64u_m1EAmHye_-1" vertex="1">
          <mxGeometry x="100" y="320" width="80" height="40" as="geometry" />
        </mxCell>
        <mxCell id="YJfQfWBxavon4rAGW0i5-4" style="edgeStyle=orthogonalEdgeStyle;rounded=0;orthogonalLoop=1;jettySize=auto;html=1;exitX=0.5;exitY=1;exitDx=0;exitDy=0;entryX=0.5;entryY=0;entryDx=0;entryDy=0;endArrow=block;endFill=1;" parent="Z8sNnp-64u_m1EAmHye_-1" source="YJfQfWBxavon4rAGW0i5-0" target="YJfQfWBxavon4rAGW0i5-1" edge="1">
          <mxGeometry relative="1" as="geometry" />
        </mxCell>
        <mxCell id="YJfQfWBxavon4rAGW0i5-6" style="edgeStyle=orthogonalEdgeStyle;rounded=0;orthogonalLoop=1;jettySize=auto;html=1;exitX=1;exitY=0.5;exitDx=0;exitDy=0;endArrow=block;endFill=1;" parent="Z8sNnp-64u_m1EAmHye_-1" source="YJfQfWBxavon4rAGW0i5-0" edge="1">
          <mxGeometry relative="1" as="geometry">
            <mxPoint x="140" y="300" as="targetPoint" />
            <Array as="points">
              <mxPoint x="220" y="160" />
              <mxPoint x="220" y="300" />
              <mxPoint x="140" y="300" />
            </Array>
          </mxGeometry>
        </mxCell>
        <mxCell id="YJfQfWBxavon4rAGW0i5-0" value="test" style="rhombus;whiteSpace=wrap;html=1;fillColor=none;" parent="Z8sNnp-64u_m1EAmHye_-1" vertex="1">
          <mxGeometry x="100" y="120" width="80" height="80" as="geometry" />
        </mxCell>
        <mxCell id="YJfQfWBxavon4rAGW0i5-5" style="edgeStyle=orthogonalEdgeStyle;rounded=0;orthogonalLoop=1;jettySize=auto;html=1;exitX=0.5;exitY=1;exitDx=0;exitDy=0;entryX=0.5;entryY=0;entryDx=0;entryDy=0;entryPerimeter=0;endArrow=block;endFill=1;" parent="Z8sNnp-64u_m1EAmHye_-1" source="YJfQfWBxavon4rAGW0i5-1" target="Z8sNnp-64u_m1EAmHye_-21" edge="1">
          <mxGeometry relative="1" as="geometry">
            <Array as="points">
              <mxPoint x="140" y="320" />
              <mxPoint x="140" y="320" />
            </Array>
          </mxGeometry>
        </mxCell>
        <mxCell id="YJfQfWBxavon4rAGW0i5-1" value="do something" style="rounded=0;whiteSpace=wrap;html=1;fillColor=none;" parent="Z8sNnp-64u_m1EAmHye_-1" vertex="1">
          <mxGeometry x="100" y="240" width="80" height="40" as="geometry" />
        </mxCell>
        <mxCell id="YJfQfWBxavon4rAGW0i5-7" value="False" style="text;html=1;strokeColor=none;fillColor=none;align=left;verticalAlign=middle;whiteSpace=wrap;rounded=0;" parent="Z8sNnp-64u_m1EAmHye_-1" vertex="1">
          <mxGeometry x="180" y="140" width="40" height="20" as="geometry" />
        </mxCell>
      </root>
    </mxGraphModel>
  </diagram>
  <diagram name="fc if-2" id="wGZtTj6sb-f06yeo5jq2">
    <mxGraphModel dx="874" dy="682" grid="1" gridSize="10" guides="1" tooltips="1" connect="1" arrows="1" fold="1" page="1" pageScale="1" pageWidth="291" pageHeight="413" math="0" shadow="0">
      <root>
        <mxCell id="_T28w_gD_YY-0CVKj-tu-0" />
        <mxCell id="_T28w_gD_YY-0CVKj-tu-1" parent="_T28w_gD_YY-0CVKj-tu-0" />
        <mxCell id="_T28w_gD_YY-0CVKj-tu-2" style="edgeStyle=orthogonalEdgeStyle;rounded=0;orthogonalLoop=1;jettySize=auto;html=1;exitX=0.5;exitY=1;exitDx=0;exitDy=0;entryX=0.5;entryY=0;entryDx=0;entryDy=0;exitPerimeter=0;endArrow=block;endFill=1;" parent="_T28w_gD_YY-0CVKj-tu-1" source="_T28w_gD_YY-0CVKj-tu-4" target="_T28w_gD_YY-0CVKj-tu-8" edge="1">
          <mxGeometry relative="1" as="geometry">
            <mxPoint x="100" y="120" as="sourcePoint" />
            <mxPoint x="100" y="160" as="targetPoint" />
          </mxGeometry>
        </mxCell>
        <mxCell id="_T28w_gD_YY-0CVKj-tu-3" value="True" style="text;html=1;strokeColor=none;fillColor=none;align=left;verticalAlign=middle;whiteSpace=wrap;rounded=0;" parent="_T28w_gD_YY-0CVKj-tu-1" vertex="1">
          <mxGeometry x="140" y="180" width="40" height="20" as="geometry" />
        </mxCell>
        <mxCell id="_T28w_gD_YY-0CVKj-tu-4" value="start" style="strokeWidth=1;html=1;shape=mxgraph.flowchart.terminator;whiteSpace=wrap;fillColor=none;" parent="_T28w_gD_YY-0CVKj-tu-1" vertex="1">
          <mxGeometry x="60" y="80" width="80" height="40" as="geometry" />
        </mxCell>
        <mxCell id="_T28w_gD_YY-0CVKj-tu-5" value="end" style="strokeWidth=1;html=1;shape=mxgraph.flowchart.terminator;whiteSpace=wrap;fillColor=none;" parent="_T28w_gD_YY-0CVKj-tu-1" vertex="1">
          <mxGeometry x="60" y="320" width="80" height="40" as="geometry" />
        </mxCell>
        <mxCell id="4B9sVnFE1JJzSaUqRbN--0" style="edgeStyle=orthogonalEdgeStyle;rounded=0;orthogonalLoop=1;jettySize=auto;html=1;exitX=1;exitY=0.5;exitDx=0;exitDy=0;entryX=0;entryY=0.5;entryDx=0;entryDy=0;endArrow=block;endFill=1;" parent="_T28w_gD_YY-0CVKj-tu-1" source="_T28w_gD_YY-0CVKj-tu-8" target="_T28w_gD_YY-0CVKj-tu-10" edge="1">
          <mxGeometry relative="1" as="geometry" />
        </mxCell>
        <mxCell id="_T28w_gD_YY-0CVKj-tu-8" value="test" style="rhombus;whiteSpace=wrap;html=1;fillColor=none;" parent="_T28w_gD_YY-0CVKj-tu-1" vertex="1">
          <mxGeometry x="60" y="160" width="80" height="80" as="geometry" />
        </mxCell>
        <mxCell id="4B9sVnFE1JJzSaUqRbN--2" style="edgeStyle=orthogonalEdgeStyle;shape=connector;rounded=0;orthogonalLoop=1;jettySize=auto;html=1;exitX=0.5;exitY=1;exitDx=0;exitDy=0;strokeColor=default;align=center;verticalAlign=middle;fontFamily=Helvetica;fontSize=11;fontColor=default;labelBackgroundColor=default;endArrow=block;endFill=1;" parent="_T28w_gD_YY-0CVKj-tu-1" source="_T28w_gD_YY-0CVKj-tu-10" edge="1">
          <mxGeometry relative="1" as="geometry">
            <mxPoint x="100" y="280" as="targetPoint" />
            <Array as="points">
              <mxPoint x="220" y="280" />
              <mxPoint x="100" y="280" />
            </Array>
          </mxGeometry>
        </mxCell>
        <mxCell id="_T28w_gD_YY-0CVKj-tu-10" value="do something" style="rounded=0;whiteSpace=wrap;html=1;fillColor=none;" parent="_T28w_gD_YY-0CVKj-tu-1" vertex="1">
          <mxGeometry x="180" y="180" width="80" height="40" as="geometry" />
        </mxCell>
        <mxCell id="_T28w_gD_YY-0CVKj-tu-11" value="False" style="text;html=1;strokeColor=none;fillColor=none;align=right;verticalAlign=middle;whiteSpace=wrap;rounded=0;" parent="_T28w_gD_YY-0CVKj-tu-1" vertex="1">
          <mxGeometry x="60" y="240" width="40" height="20" as="geometry" />
        </mxCell>
        <mxCell id="4B9sVnFE1JJzSaUqRbN--1" style="edgeStyle=orthogonalEdgeStyle;shape=connector;rounded=0;orthogonalLoop=1;jettySize=auto;html=1;exitX=0.5;exitY=1;exitDx=0;exitDy=0;strokeColor=default;align=center;verticalAlign=middle;fontFamily=Helvetica;fontSize=11;fontColor=default;labelBackgroundColor=default;endArrow=block;endFill=1;entryX=0.5;entryY=0;entryDx=0;entryDy=0;entryPerimeter=0;" parent="_T28w_gD_YY-0CVKj-tu-1" source="_T28w_gD_YY-0CVKj-tu-8" target="_T28w_gD_YY-0CVKj-tu-5" edge="1">
          <mxGeometry relative="1" as="geometry">
            <mxPoint x="100" y="400" as="targetPoint" />
          </mxGeometry>
        </mxCell>
      </root>
    </mxGraphModel>
  </diagram>
  <diagram id="cRq46XF3jY7nIP7ShKkn" name="fc else">
    <mxGraphModel dx="874" dy="682" grid="1" gridSize="10" guides="1" tooltips="1" connect="1" arrows="1" fold="1" page="1" pageScale="1" pageWidth="291" pageHeight="413" math="0" shadow="0">
      <root>
        <mxCell id="tIiNT2M0VqRFvGMewQ1P-0" />
        <mxCell id="tIiNT2M0VqRFvGMewQ1P-1" parent="tIiNT2M0VqRFvGMewQ1P-0" />
        <mxCell id="tIiNT2M0VqRFvGMewQ1P-2" style="edgeStyle=orthogonalEdgeStyle;rounded=0;orthogonalLoop=1;jettySize=auto;html=1;exitX=0.5;exitY=1;exitDx=0;exitDy=0;entryX=0.5;entryY=0;entryDx=0;entryDy=0;exitPerimeter=0;endArrow=block;endFill=1;" parent="tIiNT2M0VqRFvGMewQ1P-1" source="tIiNT2M0VqRFvGMewQ1P-4" target="tIiNT2M0VqRFvGMewQ1P-8" edge="1">
          <mxGeometry relative="1" as="geometry">
            <mxPoint x="100" y="80" as="sourcePoint" />
            <mxPoint x="100" y="120" as="targetPoint" />
          </mxGeometry>
        </mxCell>
        <mxCell id="tIiNT2M0VqRFvGMewQ1P-3" value="True" style="text;html=1;strokeColor=none;fillColor=none;align=right;verticalAlign=middle;whiteSpace=wrap;rounded=0;" parent="tIiNT2M0VqRFvGMewQ1P-1" vertex="1">
          <mxGeometry x="60" y="200" width="40" height="20" as="geometry" />
        </mxCell>
        <mxCell id="tIiNT2M0VqRFvGMewQ1P-4" value="start" style="strokeWidth=1;html=1;shape=mxgraph.flowchart.terminator;whiteSpace=wrap;fillColor=none;" parent="tIiNT2M0VqRFvGMewQ1P-1" vertex="1">
          <mxGeometry x="60" y="40" width="80" height="40" as="geometry" />
        </mxCell>
        <mxCell id="tIiNT2M0VqRFvGMewQ1P-5" value="end" style="strokeWidth=1;html=1;shape=mxgraph.flowchart.terminator;whiteSpace=wrap;fillColor=none;" parent="tIiNT2M0VqRFvGMewQ1P-1" vertex="1">
          <mxGeometry x="60" y="320" width="80" height="40" as="geometry" />
        </mxCell>
        <mxCell id="tIiNT2M0VqRFvGMewQ1P-6" style="edgeStyle=orthogonalEdgeStyle;rounded=0;orthogonalLoop=1;jettySize=auto;html=1;exitX=0.5;exitY=1;exitDx=0;exitDy=0;entryX=0.5;entryY=0;entryDx=0;entryDy=0;endArrow=block;endFill=1;" parent="tIiNT2M0VqRFvGMewQ1P-1" source="tIiNT2M0VqRFvGMewQ1P-8" target="tIiNT2M0VqRFvGMewQ1P-10" edge="1">
          <mxGeometry relative="1" as="geometry" />
        </mxCell>
        <mxCell id="tIiNT2M0VqRFvGMewQ1P-8" value="test" style="rhombus;whiteSpace=wrap;html=1;fillColor=none;" parent="tIiNT2M0VqRFvGMewQ1P-1" vertex="1">
          <mxGeometry x="60" y="120" width="80" height="80" as="geometry" />
        </mxCell>
        <mxCell id="tIiNT2M0VqRFvGMewQ1P-9" style="edgeStyle=orthogonalEdgeStyle;rounded=0;orthogonalLoop=1;jettySize=auto;html=1;exitX=0.5;exitY=1;exitDx=0;exitDy=0;entryX=0.5;entryY=0;entryDx=0;entryDy=0;entryPerimeter=0;endArrow=block;endFill=1;" parent="tIiNT2M0VqRFvGMewQ1P-1" source="tIiNT2M0VqRFvGMewQ1P-10" target="tIiNT2M0VqRFvGMewQ1P-5" edge="1">
          <mxGeometry relative="1" as="geometry">
            <Array as="points">
              <mxPoint x="100" y="320" />
              <mxPoint x="100" y="320" />
            </Array>
          </mxGeometry>
        </mxCell>
        <mxCell id="tIiNT2M0VqRFvGMewQ1P-10" value="do something" style="rounded=0;whiteSpace=wrap;html=1;fillColor=none;" parent="tIiNT2M0VqRFvGMewQ1P-1" vertex="1">
          <mxGeometry x="60" y="240" width="80" height="40" as="geometry" />
        </mxCell>
        <mxCell id="7YyGFXARUdTFjs19IIP1-1" style="edgeStyle=orthogonalEdgeStyle;rounded=0;orthogonalLoop=1;jettySize=auto;html=1;exitX=1;exitY=0.5;exitDx=0;exitDy=0;entryX=0.5;entryY=0;entryDx=0;entryDy=0;endArrow=block;endFill=1;" parent="tIiNT2M0VqRFvGMewQ1P-1" source="tIiNT2M0VqRFvGMewQ1P-8" target="7YyGFXARUdTFjs19IIP1-0" edge="1">
          <mxGeometry relative="1" as="geometry">
            <Array as="points">
              <mxPoint x="220" y="160" />
            </Array>
          </mxGeometry>
        </mxCell>
        <mxCell id="tIiNT2M0VqRFvGMewQ1P-11" value="False" style="text;html=1;strokeColor=none;fillColor=none;align=left;verticalAlign=middle;whiteSpace=wrap;rounded=0;" parent="tIiNT2M0VqRFvGMewQ1P-1" vertex="1">
          <mxGeometry x="140" y="140" width="40" height="20" as="geometry" />
        </mxCell>
        <mxCell id="7YyGFXARUdTFjs19IIP1-2" style="edgeStyle=orthogonalEdgeStyle;rounded=0;orthogonalLoop=1;jettySize=auto;html=1;exitX=0.5;exitY=1;exitDx=0;exitDy=0;endArrow=block;endFill=1;" parent="tIiNT2M0VqRFvGMewQ1P-1" source="7YyGFXARUdTFjs19IIP1-0" edge="1">
          <mxGeometry relative="1" as="geometry">
            <mxPoint x="100" y="300" as="targetPoint" />
            <Array as="points">
              <mxPoint x="220" y="300" />
              <mxPoint x="100" y="300" />
            </Array>
          </mxGeometry>
        </mxCell>
        <mxCell id="7YyGFXARUdTFjs19IIP1-0" value="do something&lt;br&gt;else" style="rounded=0;whiteSpace=wrap;html=1;fillColor=none;" parent="tIiNT2M0VqRFvGMewQ1P-1" vertex="1">
          <mxGeometry x="180" y="240" width="80" height="40" as="geometry" />
        </mxCell>
      </root>
    </mxGraphModel>
  </diagram>
  <diagram name="fc elif-1" id="IgjmNjnP2fQYIQXtQ8FC">
    <mxGraphModel dx="728" dy="568" grid="1" gridSize="10" guides="1" tooltips="1" connect="1" arrows="1" fold="1" page="1" pageScale="1" pageWidth="413" pageHeight="583" math="0" shadow="0">
      <root>
        <mxCell id="rIBvArZEygMGYcXP4XoD-0" />
        <mxCell id="rIBvArZEygMGYcXP4XoD-1" parent="rIBvArZEygMGYcXP4XoD-0" />
        <mxCell id="rIBvArZEygMGYcXP4XoD-2" style="edgeStyle=orthogonalEdgeStyle;rounded=0;orthogonalLoop=1;jettySize=auto;html=1;exitX=0.5;exitY=1;exitDx=0;exitDy=0;entryX=0.5;entryY=0;entryDx=0;entryDy=0;exitPerimeter=0;endArrow=block;endFill=1;" edge="1" parent="rIBvArZEygMGYcXP4XoD-1" source="rIBvArZEygMGYcXP4XoD-4" target="rIBvArZEygMGYcXP4XoD-8">
          <mxGeometry relative="1" as="geometry">
            <mxPoint x="120" y="80" as="sourcePoint" />
            <mxPoint x="120" y="120" as="targetPoint" />
          </mxGeometry>
        </mxCell>
        <mxCell id="rIBvArZEygMGYcXP4XoD-3" value="True" style="text;html=1;strokeColor=none;fillColor=none;align=right;verticalAlign=middle;whiteSpace=wrap;rounded=0;" vertex="1" parent="rIBvArZEygMGYcXP4XoD-1">
          <mxGeometry x="80" y="200" width="40" height="20" as="geometry" />
        </mxCell>
        <mxCell id="rIBvArZEygMGYcXP4XoD-4" value="start" style="strokeWidth=1;html=1;shape=mxgraph.flowchart.terminator;whiteSpace=wrap;fillColor=none;" vertex="1" parent="rIBvArZEygMGYcXP4XoD-1">
          <mxGeometry x="80" y="40" width="80" height="40" as="geometry" />
        </mxCell>
        <mxCell id="rIBvArZEygMGYcXP4XoD-5" value="end" style="strokeWidth=1;html=1;shape=mxgraph.flowchart.terminator;whiteSpace=wrap;fillColor=none;" vertex="1" parent="rIBvArZEygMGYcXP4XoD-1">
          <mxGeometry x="80" y="420" width="80" height="40" as="geometry" />
        </mxCell>
        <mxCell id="rIBvArZEygMGYcXP4XoD-6" style="edgeStyle=orthogonalEdgeStyle;rounded=0;orthogonalLoop=1;jettySize=auto;html=1;exitX=0.5;exitY=1;exitDx=0;exitDy=0;entryX=0.5;entryY=0;entryDx=0;entryDy=0;endArrow=block;endFill=1;" edge="1" parent="rIBvArZEygMGYcXP4XoD-1" source="rIBvArZEygMGYcXP4XoD-8" target="rIBvArZEygMGYcXP4XoD-10">
          <mxGeometry relative="1" as="geometry" />
        </mxCell>
        <mxCell id="rIBvArZEygMGYcXP4XoD-7" style="edgeStyle=orthogonalEdgeStyle;rounded=0;orthogonalLoop=1;jettySize=auto;html=1;exitX=1;exitY=0.5;exitDx=0;exitDy=0;entryX=0.5;entryY=0;entryDx=0;entryDy=0;endArrow=block;endFill=1;" edge="1" parent="rIBvArZEygMGYcXP4XoD-1" source="rIBvArZEygMGYcXP4XoD-8" target="rIBvArZEygMGYcXP4XoD-15">
          <mxGeometry relative="1" as="geometry" />
        </mxCell>
        <mxCell id="rIBvArZEygMGYcXP4XoD-8" value="test 1" style="rhombus;whiteSpace=wrap;html=1;fillColor=none;" vertex="1" parent="rIBvArZEygMGYcXP4XoD-1">
          <mxGeometry x="80" y="120" width="80" height="80" as="geometry" />
        </mxCell>
        <mxCell id="rIBvArZEygMGYcXP4XoD-9" style="edgeStyle=orthogonalEdgeStyle;rounded=0;orthogonalLoop=1;jettySize=auto;html=1;exitX=0.5;exitY=1;exitDx=0;exitDy=0;entryX=0.5;entryY=0;entryDx=0;entryDy=0;entryPerimeter=0;endArrow=block;endFill=1;" edge="1" parent="rIBvArZEygMGYcXP4XoD-1" source="rIBvArZEygMGYcXP4XoD-10" target="rIBvArZEygMGYcXP4XoD-5">
          <mxGeometry relative="1" as="geometry">
            <Array as="points">
              <mxPoint x="120" y="320" />
              <mxPoint x="120" y="320" />
            </Array>
          </mxGeometry>
        </mxCell>
        <mxCell id="rIBvArZEygMGYcXP4XoD-10" value="do this" style="rounded=0;whiteSpace=wrap;html=1;fillColor=none;" vertex="1" parent="rIBvArZEygMGYcXP4XoD-1">
          <mxGeometry x="80" y="240" width="80" height="40" as="geometry" />
        </mxCell>
        <mxCell id="rIBvArZEygMGYcXP4XoD-11" style="edgeStyle=orthogonalEdgeStyle;shape=connector;rounded=0;orthogonalLoop=1;jettySize=auto;html=1;exitX=0.5;exitY=1;exitDx=0;exitDy=0;strokeColor=default;align=center;verticalAlign=middle;fontFamily=Helvetica;fontSize=11;fontColor=default;labelBackgroundColor=default;endArrow=block;endFill=1;" edge="1" parent="rIBvArZEygMGYcXP4XoD-1" source="rIBvArZEygMGYcXP4XoD-12">
          <mxGeometry relative="1" as="geometry">
            <mxPoint x="120" y="379.9999999999999" as="targetPoint" />
            <Array as="points">
              <mxPoint x="220" y="380" />
            </Array>
          </mxGeometry>
        </mxCell>
        <mxCell id="rIBvArZEygMGYcXP4XoD-12" value="do that" style="rounded=0;whiteSpace=wrap;html=1;fillColor=none;" vertex="1" parent="rIBvArZEygMGYcXP4XoD-1">
          <mxGeometry x="180" y="320" width="80" height="40" as="geometry" />
        </mxCell>
        <mxCell id="rIBvArZEygMGYcXP4XoD-13" style="edgeStyle=orthogonalEdgeStyle;rounded=0;orthogonalLoop=1;jettySize=auto;html=1;exitX=0.5;exitY=1;exitDx=0;exitDy=0;entryX=0.5;entryY=0;entryDx=0;entryDy=0;endArrow=block;endFill=1;" edge="1" parent="rIBvArZEygMGYcXP4XoD-1" source="rIBvArZEygMGYcXP4XoD-15" target="rIBvArZEygMGYcXP4XoD-12">
          <mxGeometry relative="1" as="geometry" />
        </mxCell>
        <mxCell id="rIBvArZEygMGYcXP4XoD-14" style="edgeStyle=orthogonalEdgeStyle;rounded=0;orthogonalLoop=1;jettySize=auto;html=1;exitX=1;exitY=0.5;exitDx=0;exitDy=0;entryX=0.5;entryY=0;entryDx=0;entryDy=0;endArrow=block;endFill=1;" edge="1" parent="rIBvArZEygMGYcXP4XoD-1" source="rIBvArZEygMGYcXP4XoD-15" target="rIBvArZEygMGYcXP4XoD-20">
          <mxGeometry relative="1" as="geometry" />
        </mxCell>
        <mxCell id="rIBvArZEygMGYcXP4XoD-15" value="test 2" style="rhombus;whiteSpace=wrap;html=1;fillColor=none;" vertex="1" parent="rIBvArZEygMGYcXP4XoD-1">
          <mxGeometry x="180" y="200" width="80" height="80" as="geometry" />
        </mxCell>
        <mxCell id="rIBvArZEygMGYcXP4XoD-16" value="True" style="text;html=1;strokeColor=none;fillColor=none;align=right;verticalAlign=middle;whiteSpace=wrap;rounded=0;" vertex="1" parent="rIBvArZEygMGYcXP4XoD-1">
          <mxGeometry x="180" y="280" width="40" height="20" as="geometry" />
        </mxCell>
        <mxCell id="rIBvArZEygMGYcXP4XoD-17" value="False" style="text;html=1;strokeColor=none;fillColor=none;align=left;verticalAlign=middle;whiteSpace=wrap;rounded=0;" vertex="1" parent="rIBvArZEygMGYcXP4XoD-1">
          <mxGeometry x="160" y="140" width="40" height="20" as="geometry" />
        </mxCell>
        <mxCell id="rIBvArZEygMGYcXP4XoD-18" value="False" style="text;html=1;strokeColor=none;fillColor=none;align=left;verticalAlign=middle;whiteSpace=wrap;rounded=0;" vertex="1" parent="rIBvArZEygMGYcXP4XoD-1">
          <mxGeometry x="260" y="220" width="40" height="20" as="geometry" />
        </mxCell>
        <mxCell id="rIBvArZEygMGYcXP4XoD-19" style="edgeStyle=orthogonalEdgeStyle;shape=connector;rounded=0;orthogonalLoop=1;jettySize=auto;html=1;exitX=0.5;exitY=1;exitDx=0;exitDy=0;strokeColor=default;align=center;verticalAlign=middle;fontFamily=Helvetica;fontSize=11;fontColor=default;labelBackgroundColor=default;endArrow=block;endFill=1;" edge="1" parent="rIBvArZEygMGYcXP4XoD-1" source="rIBvArZEygMGYcXP4XoD-20">
          <mxGeometry relative="1" as="geometry">
            <mxPoint x="120" y="400" as="targetPoint" />
            <mxPoint x="360" y="349.9999999999999" as="sourcePoint" />
            <Array as="points">
              <mxPoint x="320" y="400" />
            </Array>
          </mxGeometry>
        </mxCell>
        <mxCell id="rIBvArZEygMGYcXP4XoD-20" value="do the other" style="rounded=0;whiteSpace=wrap;html=1;fillColor=none;" vertex="1" parent="rIBvArZEygMGYcXP4XoD-1">
          <mxGeometry x="280" y="320" width="80" height="40" as="geometry" />
        </mxCell>
      </root>
    </mxGraphModel>
  </diagram>
  <diagram id="ymhN67k_t4fDArkTLruu" name="sd elif-1">
    <mxGraphModel dx="874" dy="682" grid="1" gridSize="10" guides="1" tooltips="1" connect="1" arrows="1" fold="1" page="1" pageScale="1" pageWidth="1169" pageHeight="827" math="0" shadow="0">
      <root>
        <mxCell id="0" />
        <mxCell id="1" parent="0" />
        <mxCell id="PWeVSlh2sk5hYXikbitO-3" style="rounded=0;orthogonalLoop=1;jettySize=auto;html=1;exitX=0.375;exitY=1;exitDx=0;exitDy=0;entryX=0.75;entryY=0;entryDx=0;entryDy=0;endArrow=none;endFill=0;" edge="1" parent="1" source="PWeVSlh2sk5hYXikbitO-5" target="PWeVSlh2sk5hYXikbitO-6">
          <mxGeometry relative="1" as="geometry" />
        </mxCell>
        <mxCell id="PWeVSlh2sk5hYXikbitO-4" style="rounded=0;orthogonalLoop=1;jettySize=auto;html=1;exitX=0.625;exitY=1;exitDx=0;exitDy=0;entryX=0.375;entryY=0;entryDx=0;entryDy=0;endArrow=none;endFill=0;" edge="1" parent="1" source="PWeVSlh2sk5hYXikbitO-5" target="PWeVSlh2sk5hYXikbitO-11">
          <mxGeometry relative="1" as="geometry" />
        </mxCell>
        <mxCell id="PWeVSlh2sk5hYXikbitO-5" value="Test 1" style="shape=hexagon;perimeter=hexagonPerimeter2;whiteSpace=wrap;html=1;fixedSize=1;fillColor=none;" vertex="1" parent="1">
          <mxGeometry x="360" y="200" width="120" height="60" as="geometry" />
        </mxCell>
        <mxCell id="PWeVSlh2sk5hYXikbitO-6" value="Do this" style="rounded=0;whiteSpace=wrap;html=1;fillColor=none;" vertex="1" parent="1">
          <mxGeometry x="280" y="320" width="120" height="60" as="geometry" />
        </mxCell>
        <mxCell id="PWeVSlh2sk5hYXikbitO-7" value="Do that" style="rounded=0;whiteSpace=wrap;html=1;fillColor=none;" vertex="1" parent="1">
          <mxGeometry x="340" y="440" width="120" height="60" as="geometry" />
        </mxCell>
        <mxCell id="PWeVSlh2sk5hYXikbitO-8" value="Do the other" style="rounded=0;whiteSpace=wrap;html=1;fillColor=none;" vertex="1" parent="1">
          <mxGeometry x="500" y="440" width="120" height="60" as="geometry" />
        </mxCell>
        <mxCell id="PWeVSlh2sk5hYXikbitO-9" style="rounded=0;orthogonalLoop=1;jettySize=auto;html=1;exitX=0.375;exitY=1;exitDx=0;exitDy=0;entryX=0.75;entryY=0;entryDx=0;entryDy=0;endArrow=none;endFill=0;" edge="1" parent="1" source="PWeVSlh2sk5hYXikbitO-11" target="PWeVSlh2sk5hYXikbitO-7">
          <mxGeometry relative="1" as="geometry" />
        </mxCell>
        <mxCell id="PWeVSlh2sk5hYXikbitO-10" style="rounded=0;orthogonalLoop=1;jettySize=auto;html=1;exitX=0.625;exitY=1;exitDx=0;exitDy=0;entryX=0.25;entryY=0;entryDx=0;entryDy=0;endArrow=none;endFill=0;" edge="1" parent="1" source="PWeVSlh2sk5hYXikbitO-11" target="PWeVSlh2sk5hYXikbitO-8">
          <mxGeometry relative="1" as="geometry" />
        </mxCell>
        <mxCell id="PWeVSlh2sk5hYXikbitO-11" value="Test 2" style="shape=hexagon;perimeter=hexagonPerimeter2;whiteSpace=wrap;html=1;fixedSize=1;fillColor=none;" vertex="1" parent="1">
          <mxGeometry x="420" y="320" width="120" height="60" as="geometry" />
        </mxCell>
        <mxCell id="PWeVSlh2sk5hYXikbitO-13" value="True" style="text;html=1;strokeColor=none;fillColor=none;align=right;verticalAlign=middle;whiteSpace=wrap;rounded=0;" vertex="1" parent="1">
          <mxGeometry x="340" y="280" width="40" height="20" as="geometry" />
        </mxCell>
        <mxCell id="PWeVSlh2sk5hYXikbitO-14" value="False" style="text;html=1;strokeColor=none;fillColor=none;align=left;verticalAlign=middle;whiteSpace=wrap;rounded=0;" vertex="1" parent="1">
          <mxGeometry x="460" y="280" width="40" height="20" as="geometry" />
        </mxCell>
        <mxCell id="PWeVSlh2sk5hYXikbitO-15" value="True" style="text;html=1;strokeColor=none;fillColor=none;align=right;verticalAlign=middle;whiteSpace=wrap;rounded=0;" vertex="1" parent="1">
          <mxGeometry x="400" y="400" width="40" height="20" as="geometry" />
        </mxCell>
        <mxCell id="PWeVSlh2sk5hYXikbitO-16" value="False" style="text;html=1;strokeColor=none;fillColor=none;align=left;verticalAlign=middle;whiteSpace=wrap;rounded=0;" vertex="1" parent="1">
          <mxGeometry x="520" y="400" width="40" height="20" as="geometry" />
        </mxCell>
      </root>
    </mxGraphModel>
  </diagram>
  <diagram id="fdd4WQHpybC-IddDWGsn" name="fc elif-2">
    <mxGraphModel dx="728" dy="568" grid="1" gridSize="10" guides="1" tooltips="1" connect="1" arrows="1" fold="1" page="1" pageScale="1" pageWidth="413" pageHeight="583" math="0" shadow="0">
      <root>
        <mxCell id="zQq0gdM_Qzl1OQmvSLkQ-0" />
        <mxCell id="zQq0gdM_Qzl1OQmvSLkQ-1" parent="zQq0gdM_Qzl1OQmvSLkQ-0" />
        <mxCell id="zQq0gdM_Qzl1OQmvSLkQ-2" style="edgeStyle=orthogonalEdgeStyle;rounded=0;orthogonalLoop=1;jettySize=auto;html=1;exitX=0.5;exitY=1;exitDx=0;exitDy=0;entryX=0.5;entryY=0;entryDx=0;entryDy=0;exitPerimeter=0;endArrow=block;endFill=1;" parent="zQq0gdM_Qzl1OQmvSLkQ-1" source="zQq0gdM_Qzl1OQmvSLkQ-4" target="zQq0gdM_Qzl1OQmvSLkQ-7" edge="1">
          <mxGeometry relative="1" as="geometry">
            <mxPoint x="120" y="80" as="sourcePoint" />
            <mxPoint x="120" y="120" as="targetPoint" />
          </mxGeometry>
        </mxCell>
        <mxCell id="zQq0gdM_Qzl1OQmvSLkQ-3" value="True" style="text;html=1;strokeColor=none;fillColor=none;align=right;verticalAlign=middle;whiteSpace=wrap;rounded=0;" parent="zQq0gdM_Qzl1OQmvSLkQ-1" vertex="1">
          <mxGeometry x="80" y="200" width="40" height="20" as="geometry" />
        </mxCell>
        <mxCell id="zQq0gdM_Qzl1OQmvSLkQ-4" value="start" style="strokeWidth=1;html=1;shape=mxgraph.flowchart.terminator;whiteSpace=wrap;fillColor=none;" parent="zQq0gdM_Qzl1OQmvSLkQ-1" vertex="1">
          <mxGeometry x="80" y="40" width="80" height="40" as="geometry" />
        </mxCell>
        <mxCell id="zQq0gdM_Qzl1OQmvSLkQ-5" value="end" style="strokeWidth=1;html=1;shape=mxgraph.flowchart.terminator;whiteSpace=wrap;fillColor=none;" parent="zQq0gdM_Qzl1OQmvSLkQ-1" vertex="1">
          <mxGeometry x="80" y="420" width="80" height="40" as="geometry" />
        </mxCell>
        <mxCell id="zQq0gdM_Qzl1OQmvSLkQ-6" style="edgeStyle=orthogonalEdgeStyle;rounded=0;orthogonalLoop=1;jettySize=auto;html=1;exitX=0.5;exitY=1;exitDx=0;exitDy=0;entryX=0.5;entryY=0;entryDx=0;entryDy=0;endArrow=block;endFill=1;" parent="zQq0gdM_Qzl1OQmvSLkQ-1" source="zQq0gdM_Qzl1OQmvSLkQ-7" target="zQq0gdM_Qzl1OQmvSLkQ-9" edge="1">
          <mxGeometry relative="1" as="geometry" />
        </mxCell>
        <mxCell id="CRMbvHHz2eeOOS5NiYM7-6" style="edgeStyle=orthogonalEdgeStyle;rounded=0;orthogonalLoop=1;jettySize=auto;html=1;exitX=1;exitY=0.5;exitDx=0;exitDy=0;entryX=0.5;entryY=0;entryDx=0;entryDy=0;endArrow=block;endFill=1;" parent="zQq0gdM_Qzl1OQmvSLkQ-1" source="zQq0gdM_Qzl1OQmvSLkQ-7" target="CRMbvHHz2eeOOS5NiYM7-0" edge="1">
          <mxGeometry relative="1" as="geometry" />
        </mxCell>
        <mxCell id="zQq0gdM_Qzl1OQmvSLkQ-7" value="test 1" style="rhombus;whiteSpace=wrap;html=1;fillColor=none;" parent="zQq0gdM_Qzl1OQmvSLkQ-1" vertex="1">
          <mxGeometry x="80" y="120" width="80" height="80" as="geometry" />
        </mxCell>
        <mxCell id="zQq0gdM_Qzl1OQmvSLkQ-8" style="edgeStyle=orthogonalEdgeStyle;rounded=0;orthogonalLoop=1;jettySize=auto;html=1;exitX=0.5;exitY=1;exitDx=0;exitDy=0;entryX=0.5;entryY=0;entryDx=0;entryDy=0;entryPerimeter=0;endArrow=block;endFill=1;" parent="zQq0gdM_Qzl1OQmvSLkQ-1" source="zQq0gdM_Qzl1OQmvSLkQ-9" target="zQq0gdM_Qzl1OQmvSLkQ-5" edge="1">
          <mxGeometry relative="1" as="geometry">
            <Array as="points">
              <mxPoint x="120" y="320" />
              <mxPoint x="120" y="320" />
            </Array>
          </mxGeometry>
        </mxCell>
        <mxCell id="zQq0gdM_Qzl1OQmvSLkQ-9" value="do this" style="rounded=0;whiteSpace=wrap;html=1;fillColor=none;" parent="zQq0gdM_Qzl1OQmvSLkQ-1" vertex="1">
          <mxGeometry x="80" y="240" width="80" height="40" as="geometry" />
        </mxCell>
        <mxCell id="3t_RJdTS5zck22UlJxnq-5" style="edgeStyle=orthogonalEdgeStyle;shape=connector;rounded=0;orthogonalLoop=1;jettySize=auto;html=1;exitX=0.5;exitY=1;exitDx=0;exitDy=0;strokeColor=default;align=center;verticalAlign=middle;fontFamily=Helvetica;fontSize=11;fontColor=default;labelBackgroundColor=default;endArrow=block;endFill=1;" parent="zQq0gdM_Qzl1OQmvSLkQ-1" source="zQq0gdM_Qzl1OQmvSLkQ-13" edge="1">
          <mxGeometry relative="1" as="geometry">
            <mxPoint x="120" y="379.9999999999999" as="targetPoint" />
            <Array as="points">
              <mxPoint x="220" y="380" />
            </Array>
          </mxGeometry>
        </mxCell>
        <mxCell id="zQq0gdM_Qzl1OQmvSLkQ-13" value="do that" style="rounded=0;whiteSpace=wrap;html=1;fillColor=none;" parent="zQq0gdM_Qzl1OQmvSLkQ-1" vertex="1">
          <mxGeometry x="180" y="320" width="80" height="40" as="geometry" />
        </mxCell>
        <mxCell id="CRMbvHHz2eeOOS5NiYM7-2" style="edgeStyle=orthogonalEdgeStyle;rounded=0;orthogonalLoop=1;jettySize=auto;html=1;exitX=0.5;exitY=1;exitDx=0;exitDy=0;entryX=0.5;entryY=0;entryDx=0;entryDy=0;endArrow=block;endFill=1;" parent="zQq0gdM_Qzl1OQmvSLkQ-1" source="CRMbvHHz2eeOOS5NiYM7-0" target="zQq0gdM_Qzl1OQmvSLkQ-13" edge="1">
          <mxGeometry relative="1" as="geometry" />
        </mxCell>
        <mxCell id="3t_RJdTS5zck22UlJxnq-1" style="edgeStyle=orthogonalEdgeStyle;rounded=0;orthogonalLoop=1;jettySize=auto;html=1;exitX=1;exitY=0.5;exitDx=0;exitDy=0;endArrow=block;endFill=1;" parent="zQq0gdM_Qzl1OQmvSLkQ-1" source="CRMbvHHz2eeOOS5NiYM7-0" edge="1">
          <mxGeometry relative="1" as="geometry">
            <mxPoint x="120" y="400" as="targetPoint" />
            <Array as="points">
              <mxPoint x="300" y="240" />
              <mxPoint x="300" y="400" />
            </Array>
          </mxGeometry>
        </mxCell>
        <mxCell id="CRMbvHHz2eeOOS5NiYM7-0" value="test 2" style="rhombus;whiteSpace=wrap;html=1;fillColor=none;" parent="zQq0gdM_Qzl1OQmvSLkQ-1" vertex="1">
          <mxGeometry x="180" y="200" width="80" height="80" as="geometry" />
        </mxCell>
        <mxCell id="CRMbvHHz2eeOOS5NiYM7-4" value="True" style="text;html=1;strokeColor=none;fillColor=none;align=right;verticalAlign=middle;whiteSpace=wrap;rounded=0;" parent="zQq0gdM_Qzl1OQmvSLkQ-1" vertex="1">
          <mxGeometry x="180" y="280" width="40" height="20" as="geometry" />
        </mxCell>
        <mxCell id="zQq0gdM_Qzl1OQmvSLkQ-11" value="False" style="text;html=1;strokeColor=none;fillColor=none;align=left;verticalAlign=middle;whiteSpace=wrap;rounded=0;" parent="zQq0gdM_Qzl1OQmvSLkQ-1" vertex="1">
          <mxGeometry x="160" y="140" width="40" height="20" as="geometry" />
        </mxCell>
        <mxCell id="CRMbvHHz2eeOOS5NiYM7-7" value="False" style="text;html=1;strokeColor=none;fillColor=none;align=left;verticalAlign=middle;whiteSpace=wrap;rounded=0;" parent="zQq0gdM_Qzl1OQmvSLkQ-1" vertex="1">
          <mxGeometry x="260" y="220" width="40" height="20" as="geometry" />
        </mxCell>
        <mxCell id="6cdODHUqIeercjq1Rxlk-0" value="Do nothing extra" style="text;html=1;align=center;verticalAlign=middle;whiteSpace=wrap;rounded=0;rotation=270;direction=west;" vertex="1" parent="zQq0gdM_Qzl1OQmvSLkQ-1">
          <mxGeometry x="260" y="310" width="100" height="20" as="geometry" />
        </mxCell>
      </root>
    </mxGraphModel>
  </diagram>
  <diagram name="sd elif-2" id="BO6wOFoMeK-cRtLddsj2">
    <mxGraphModel dx="874" dy="682" grid="1" gridSize="10" guides="1" tooltips="1" connect="1" arrows="1" fold="1" page="1" pageScale="1" pageWidth="1169" pageHeight="827" math="0" shadow="0">
      <root>
        <mxCell id="GgQO18a5qfMcU0XEpZUQ-0" />
        <mxCell id="GgQO18a5qfMcU0XEpZUQ-1" parent="GgQO18a5qfMcU0XEpZUQ-0" />
        <mxCell id="GgQO18a5qfMcU0XEpZUQ-2" style="rounded=0;orthogonalLoop=1;jettySize=auto;html=1;exitX=0.375;exitY=1;exitDx=0;exitDy=0;entryX=0.75;entryY=0;entryDx=0;entryDy=0;endArrow=none;endFill=0;" edge="1" parent="GgQO18a5qfMcU0XEpZUQ-1" source="GgQO18a5qfMcU0XEpZUQ-4" target="GgQO18a5qfMcU0XEpZUQ-5">
          <mxGeometry relative="1" as="geometry" />
        </mxCell>
        <mxCell id="GgQO18a5qfMcU0XEpZUQ-3" style="rounded=0;orthogonalLoop=1;jettySize=auto;html=1;exitX=0.625;exitY=1;exitDx=0;exitDy=0;entryX=0.375;entryY=0;entryDx=0;entryDy=0;endArrow=none;endFill=0;" edge="1" parent="GgQO18a5qfMcU0XEpZUQ-1" source="GgQO18a5qfMcU0XEpZUQ-4" target="GgQO18a5qfMcU0XEpZUQ-10">
          <mxGeometry relative="1" as="geometry" />
        </mxCell>
        <mxCell id="GgQO18a5qfMcU0XEpZUQ-4" value="Test 1" style="shape=hexagon;perimeter=hexagonPerimeter2;whiteSpace=wrap;html=1;fixedSize=1;fillColor=none;" vertex="1" parent="GgQO18a5qfMcU0XEpZUQ-1">
          <mxGeometry x="360" y="200" width="120" height="60" as="geometry" />
        </mxCell>
        <mxCell id="GgQO18a5qfMcU0XEpZUQ-5" value="Do this" style="rounded=0;whiteSpace=wrap;html=1;fillColor=none;" vertex="1" parent="GgQO18a5qfMcU0XEpZUQ-1">
          <mxGeometry x="280" y="320" width="120" height="60" as="geometry" />
        </mxCell>
        <mxCell id="GgQO18a5qfMcU0XEpZUQ-6" value="Do that" style="rounded=0;whiteSpace=wrap;html=1;fillColor=none;" vertex="1" parent="GgQO18a5qfMcU0XEpZUQ-1">
          <mxGeometry x="420" y="440" width="120" height="60" as="geometry" />
        </mxCell>
        <mxCell id="GgQO18a5qfMcU0XEpZUQ-8" style="rounded=0;orthogonalLoop=1;jettySize=auto;html=1;exitX=0.5;exitY=1;exitDx=0;exitDy=0;entryX=0.5;entryY=0;entryDx=0;entryDy=0;endArrow=none;endFill=0;" edge="1" parent="GgQO18a5qfMcU0XEpZUQ-1" source="GgQO18a5qfMcU0XEpZUQ-10" target="GgQO18a5qfMcU0XEpZUQ-6">
          <mxGeometry relative="1" as="geometry" />
        </mxCell>
        <mxCell id="GgQO18a5qfMcU0XEpZUQ-10" value="Test 2" style="shape=hexagon;perimeter=hexagonPerimeter2;whiteSpace=wrap;html=1;fixedSize=1;fillColor=none;" vertex="1" parent="GgQO18a5qfMcU0XEpZUQ-1">
          <mxGeometry x="420" y="320" width="120" height="60" as="geometry" />
        </mxCell>
        <mxCell id="GgQO18a5qfMcU0XEpZUQ-11" value="True" style="text;html=1;strokeColor=none;fillColor=none;align=right;verticalAlign=middle;whiteSpace=wrap;rounded=0;" vertex="1" parent="GgQO18a5qfMcU0XEpZUQ-1">
          <mxGeometry x="340" y="280" width="40" height="20" as="geometry" />
        </mxCell>
        <mxCell id="GgQO18a5qfMcU0XEpZUQ-12" value="False" style="text;html=1;strokeColor=none;fillColor=none;align=left;verticalAlign=middle;whiteSpace=wrap;rounded=0;" vertex="1" parent="GgQO18a5qfMcU0XEpZUQ-1">
          <mxGeometry x="460" y="280" width="40" height="20" as="geometry" />
        </mxCell>
        <mxCell id="GgQO18a5qfMcU0XEpZUQ-13" value="True" style="text;html=1;strokeColor=none;fillColor=none;align=right;verticalAlign=middle;whiteSpace=wrap;rounded=0;" vertex="1" parent="GgQO18a5qfMcU0XEpZUQ-1">
          <mxGeometry x="440" y="400" width="40" height="20" as="geometry" />
        </mxCell>
      </root>
    </mxGraphModel>
  </diagram>
  <diagram name="fc for" id="RfOXmFBbeSL8NwGdrXIQ">
    <mxGraphModel dx="874" dy="682" grid="1" gridSize="10" guides="1" tooltips="1" connect="1" arrows="1" fold="1" page="1" pageScale="1" pageWidth="413" pageHeight="583" math="0" shadow="0">
      <root>
        <mxCell id="BlAuSSBt4ShoFbeqiTGO-0" />
        <mxCell id="BlAuSSBt4ShoFbeqiTGO-1" parent="BlAuSSBt4ShoFbeqiTGO-0" />
        <mxCell id="BlAuSSBt4ShoFbeqiTGO-2" value="start" style="strokeWidth=1;html=1;shape=mxgraph.flowchart.terminator;whiteSpace=wrap;fillColor=none;" parent="BlAuSSBt4ShoFbeqiTGO-1" vertex="1">
          <mxGeometry x="160" y="120" width="80" height="40" as="geometry" />
        </mxCell>
        <mxCell id="BlAuSSBt4ShoFbeqiTGO-3" value="end" style="strokeWidth=1;html=1;shape=mxgraph.flowchart.terminator;whiteSpace=wrap;fillColor=none;" parent="BlAuSSBt4ShoFbeqiTGO-1" vertex="1">
          <mxGeometry x="160" y="440" width="80" height="40" as="geometry" />
        </mxCell>
        <mxCell id="ZibtNAevWiPY5nyctixv-1" style="edgeStyle=orthogonalEdgeStyle;rounded=0;orthogonalLoop=1;jettySize=auto;html=1;exitX=0.5;exitY=1;exitDx=0;exitDy=0;entryX=0.5;entryY=0;entryDx=0;entryDy=0;endArrow=block;endFill=1;" parent="BlAuSSBt4ShoFbeqiTGO-1" source="BlAuSSBt4ShoFbeqiTGO-5" target="ZibtNAevWiPY5nyctixv-0" edge="1">
          <mxGeometry relative="1" as="geometry" />
        </mxCell>
        <mxCell id="BlAuSSBt4ShoFbeqiTGO-5" value="do something" style="rounded=0;whiteSpace=wrap;html=1;fillColor=none;" parent="BlAuSSBt4ShoFbeqiTGO-1" vertex="1">
          <mxGeometry x="160" y="200" width="80" height="40" as="geometry" />
        </mxCell>
        <mxCell id="BlAuSSBt4ShoFbeqiTGO-6" style="edgeStyle=orthogonalEdgeStyle;rounded=0;orthogonalLoop=1;jettySize=auto;html=1;exitX=0.5;exitY=1;exitDx=0;exitDy=0;entryX=0.5;entryY=0;entryDx=0;entryDy=0;endArrow=block;endFill=1;" parent="BlAuSSBt4ShoFbeqiTGO-1" source="BlAuSSBt4ShoFbeqiTGO-8" edge="1">
          <mxGeometry relative="1" as="geometry">
            <mxPoint x="200" y="440" as="targetPoint" />
          </mxGeometry>
        </mxCell>
        <mxCell id="BlAuSSBt4ShoFbeqiTGO-7" style="edgeStyle=orthogonalEdgeStyle;shape=connector;rounded=0;orthogonalLoop=1;jettySize=auto;html=1;exitX=1;exitY=0.5;exitDx=0;exitDy=0;labelBackgroundColor=default;strokeColor=default;fontFamily=Helvetica;fontSize=11;fontColor=default;endArrow=block;endFill=1;" parent="BlAuSSBt4ShoFbeqiTGO-1" source="BlAuSSBt4ShoFbeqiTGO-8" edge="1">
          <mxGeometry relative="1" as="geometry">
            <mxPoint x="200" y="180" as="targetPoint" />
            <Array as="points">
              <mxPoint x="280" y="360" />
              <mxPoint x="280" y="180" />
            </Array>
          </mxGeometry>
        </mxCell>
        <mxCell id="BlAuSSBt4ShoFbeqiTGO-8" value="test&lt;div&gt;counter&lt;/div&gt;" style="rhombus;whiteSpace=wrap;html=1;fillColor=none;" parent="BlAuSSBt4ShoFbeqiTGO-1" vertex="1">
          <mxGeometry x="160" y="320" width="80" height="80" as="geometry" />
        </mxCell>
        <mxCell id="BlAuSSBt4ShoFbeqiTGO-9" value="False" style="text;html=1;strokeColor=none;fillColor=none;align=left;verticalAlign=middle;whiteSpace=wrap;rounded=0;" parent="BlAuSSBt4ShoFbeqiTGO-1" vertex="1">
          <mxGeometry x="240" y="340" width="40" height="20" as="geometry" />
        </mxCell>
        <mxCell id="BlAuSSBt4ShoFbeqiTGO-10" value="True" style="text;html=1;strokeColor=none;fillColor=none;align=right;verticalAlign=middle;whiteSpace=wrap;rounded=0;" parent="BlAuSSBt4ShoFbeqiTGO-1" vertex="1">
          <mxGeometry x="160" y="400" width="40" height="20" as="geometry" />
        </mxCell>
        <mxCell id="BlAuSSBt4ShoFbeqiTGO-11" style="edgeStyle=orthogonalEdgeStyle;rounded=0;orthogonalLoop=1;jettySize=auto;html=1;entryX=0.5;entryY=0;entryDx=0;entryDy=0;endArrow=block;endFill=1;exitX=0.5;exitY=1;exitDx=0;exitDy=0;exitPerimeter=0;" parent="BlAuSSBt4ShoFbeqiTGO-1" source="BlAuSSBt4ShoFbeqiTGO-2" target="BlAuSSBt4ShoFbeqiTGO-5" edge="1">
          <mxGeometry relative="1" as="geometry">
            <mxPoint x="170" y="180" as="sourcePoint" />
          </mxGeometry>
        </mxCell>
        <mxCell id="ZibtNAevWiPY5nyctixv-2" style="edgeStyle=orthogonalEdgeStyle;shape=connector;rounded=0;orthogonalLoop=1;jettySize=auto;html=1;exitX=0.5;exitY=1;exitDx=0;exitDy=0;entryX=0.5;entryY=0;entryDx=0;entryDy=0;strokeColor=default;align=center;verticalAlign=middle;fontFamily=Helvetica;fontSize=11;fontColor=default;labelBackgroundColor=default;endArrow=block;endFill=1;" parent="BlAuSSBt4ShoFbeqiTGO-1" source="ZibtNAevWiPY5nyctixv-0" target="BlAuSSBt4ShoFbeqiTGO-8" edge="1">
          <mxGeometry relative="1" as="geometry" />
        </mxCell>
        <mxCell id="ZibtNAevWiPY5nyctixv-0" value="increment counter" style="rounded=0;whiteSpace=wrap;html=1;fillColor=none;" parent="BlAuSSBt4ShoFbeqiTGO-1" vertex="1">
          <mxGeometry x="160" y="260" width="80" height="40" as="geometry" />
        </mxCell>
      </root>
    </mxGraphModel>
  </diagram>
  <diagram id="HpiRsM963S-AZ2RVgfdP" name="fc while">
    <mxGraphModel dx="874" dy="682" grid="1" gridSize="10" guides="1" tooltips="1" connect="1" arrows="1" fold="1" page="1" pageScale="1" pageWidth="413" pageHeight="583" math="0" shadow="0">
      <root>
        <mxCell id="ReO4wNRiFc-oBfyfzqiz-0" />
        <mxCell id="ReO4wNRiFc-oBfyfzqiz-1" parent="ReO4wNRiFc-oBfyfzqiz-0" />
        <mxCell id="ReO4wNRiFc-oBfyfzqiz-4" value="start" style="strokeWidth=1;html=1;shape=mxgraph.flowchart.terminator;whiteSpace=wrap;fillColor=none;" parent="ReO4wNRiFc-oBfyfzqiz-1" vertex="1">
          <mxGeometry x="160" y="120" width="80" height="40" as="geometry" />
        </mxCell>
        <mxCell id="ReO4wNRiFc-oBfyfzqiz-5" value="end" style="strokeWidth=1;html=1;shape=mxgraph.flowchart.terminator;whiteSpace=wrap;fillColor=none;" parent="ReO4wNRiFc-oBfyfzqiz-1" vertex="1">
          <mxGeometry x="160" y="400" width="80" height="40" as="geometry" />
        </mxCell>
        <mxCell id="U37ZUCgEj7H4AQ7mQAE6-4" style="edgeStyle=orthogonalEdgeStyle;shape=connector;rounded=0;orthogonalLoop=1;jettySize=auto;html=1;exitX=0.5;exitY=1;exitDx=0;exitDy=0;entryX=0.5;entryY=0;entryDx=0;entryDy=0;labelBackgroundColor=default;strokeColor=default;fontFamily=Helvetica;fontSize=11;fontColor=default;endArrow=block;endFill=1;" parent="ReO4wNRiFc-oBfyfzqiz-1" source="ReO4wNRiFc-oBfyfzqiz-10" target="ReO4wNRiFc-oBfyfzqiz-15" edge="1">
          <mxGeometry relative="1" as="geometry" />
        </mxCell>
        <mxCell id="ReO4wNRiFc-oBfyfzqiz-10" value="do something" style="rounded=0;whiteSpace=wrap;html=1;fillColor=none;" parent="ReO4wNRiFc-oBfyfzqiz-1" vertex="1">
          <mxGeometry x="160" y="200" width="80" height="40" as="geometry" />
        </mxCell>
        <mxCell id="ReO4wNRiFc-oBfyfzqiz-13" style="edgeStyle=orthogonalEdgeStyle;rounded=0;orthogonalLoop=1;jettySize=auto;html=1;exitX=0.5;exitY=1;exitDx=0;exitDy=0;entryX=0.5;entryY=0;entryDx=0;entryDy=0;endArrow=block;endFill=1;" parent="ReO4wNRiFc-oBfyfzqiz-1" source="ReO4wNRiFc-oBfyfzqiz-15" edge="1">
          <mxGeometry relative="1" as="geometry">
            <mxPoint x="200" y="400" as="targetPoint" />
          </mxGeometry>
        </mxCell>
        <mxCell id="U37ZUCgEj7H4AQ7mQAE6-5" style="edgeStyle=orthogonalEdgeStyle;shape=connector;rounded=0;orthogonalLoop=1;jettySize=auto;html=1;exitX=1;exitY=0.5;exitDx=0;exitDy=0;labelBackgroundColor=default;strokeColor=default;fontFamily=Helvetica;fontSize=11;fontColor=default;endArrow=block;endFill=1;" parent="ReO4wNRiFc-oBfyfzqiz-1" source="ReO4wNRiFc-oBfyfzqiz-15" edge="1">
          <mxGeometry relative="1" as="geometry">
            <mxPoint x="200" y="180" as="targetPoint" />
            <Array as="points">
              <mxPoint x="280" y="320" />
              <mxPoint x="280" y="180" />
            </Array>
          </mxGeometry>
        </mxCell>
        <mxCell id="ReO4wNRiFc-oBfyfzqiz-15" value="test" style="rhombus;whiteSpace=wrap;html=1;fillColor=none;" parent="ReO4wNRiFc-oBfyfzqiz-1" vertex="1">
          <mxGeometry x="160" y="280" width="80" height="80" as="geometry" />
        </mxCell>
        <mxCell id="ReO4wNRiFc-oBfyfzqiz-16" value="True" style="text;html=1;strokeColor=none;fillColor=none;align=left;verticalAlign=middle;whiteSpace=wrap;rounded=0;" parent="ReO4wNRiFc-oBfyfzqiz-1" vertex="1">
          <mxGeometry x="240" y="300" width="40" height="20" as="geometry" />
        </mxCell>
        <mxCell id="ReO4wNRiFc-oBfyfzqiz-18" value="False" style="text;html=1;strokeColor=none;fillColor=none;align=right;verticalAlign=middle;whiteSpace=wrap;rounded=0;" parent="ReO4wNRiFc-oBfyfzqiz-1" vertex="1">
          <mxGeometry x="160" y="360" width="40" height="20" as="geometry" />
        </mxCell>
        <mxCell id="U37ZUCgEj7H4AQ7mQAE6-3" style="edgeStyle=orthogonalEdgeStyle;rounded=0;orthogonalLoop=1;jettySize=auto;html=1;entryX=0.5;entryY=0;entryDx=0;entryDy=0;endArrow=block;endFill=1;exitX=0.5;exitY=1;exitDx=0;exitDy=0;exitPerimeter=0;" parent="ReO4wNRiFc-oBfyfzqiz-1" source="ReO4wNRiFc-oBfyfzqiz-4" target="ReO4wNRiFc-oBfyfzqiz-10" edge="1">
          <mxGeometry relative="1" as="geometry">
            <mxPoint x="170" y="180" as="sourcePoint" />
          </mxGeometry>
        </mxCell>
      </root>
    </mxGraphModel>
  </diagram>
  <diagram id="b57hXA_8GjXFq6_1qkgo" name="fc">
    <mxGraphModel dx="735" dy="564" grid="1" gridSize="10" guides="1" tooltips="1" connect="1" arrows="1" fold="1" page="1" pageScale="1" pageWidth="827" pageHeight="1169" math="0" shadow="0">
      <root>
        <mxCell id="0" />
        <mxCell id="1" parent="0" />
        <mxCell id="zF8FcGyKqAUuClYapq0u-18" style="edgeStyle=orthogonalEdgeStyle;rounded=0;orthogonalLoop=1;jettySize=auto;html=1;exitX=0.5;exitY=1;exitDx=0;exitDy=0;entryX=0.5;entryY=0;entryDx=0;entryDy=0;endArrow=block;endFill=1;" parent="1" source="zF8FcGyKqAUuClYapq0u-2" target="zF8FcGyKqAUuClYapq0u-4" edge="1">
          <mxGeometry relative="1" as="geometry" />
        </mxCell>
        <mxCell id="zF8FcGyKqAUuClYapq0u-2" value="Start" style="rounded=1;whiteSpace=wrap;html=1;arcSize=50;" parent="1" vertex="1">
          <mxGeometry x="200" y="60" width="120" height="60" as="geometry" />
        </mxCell>
        <mxCell id="zF8FcGyKqAUuClYapq0u-16" style="edgeStyle=orthogonalEdgeStyle;rounded=0;orthogonalLoop=1;jettySize=auto;html=1;exitX=0.5;exitY=1;exitDx=0;exitDy=0;entryX=0.5;entryY=0;entryDx=0;entryDy=0;endArrow=block;endFill=1;" parent="1" source="zF8FcGyKqAUuClYapq0u-3" target="zF8FcGyKqAUuClYapq0u-5" edge="1">
          <mxGeometry relative="1" as="geometry" />
        </mxCell>
        <mxCell id="zF8FcGyKqAUuClYapq0u-3" value="pick and store a random number,&lt;br&gt;1 to 6" style="rounded=0;whiteSpace=wrap;html=1;" parent="1" vertex="1">
          <mxGeometry x="200" y="260" width="120" height="60" as="geometry" />
        </mxCell>
        <mxCell id="zF8FcGyKqAUuClYapq0u-17" style="edgeStyle=orthogonalEdgeStyle;rounded=0;orthogonalLoop=1;jettySize=auto;html=1;exitX=0.5;exitY=1;exitDx=0;exitDy=0;entryX=0.5;entryY=0;entryDx=0;entryDy=0;endArrow=block;endFill=1;" parent="1" source="zF8FcGyKqAUuClYapq0u-4" target="zF8FcGyKqAUuClYapq0u-3" edge="1">
          <mxGeometry relative="1" as="geometry" />
        </mxCell>
        <mxCell id="zF8FcGyKqAUuClYapq0u-4" value="Initialise variables" style="shape=hexagon;perimeter=hexagonPerimeter2;whiteSpace=wrap;html=1;fixedSize=1;" parent="1" vertex="1">
          <mxGeometry x="200" y="160" width="120" height="60" as="geometry" />
        </mxCell>
        <mxCell id="zF8FcGyKqAUuClYapq0u-15" style="edgeStyle=orthogonalEdgeStyle;rounded=0;orthogonalLoop=1;jettySize=auto;html=1;exitX=0.5;exitY=1;exitDx=0;exitDy=0;entryX=0.5;entryY=0;entryDx=0;entryDy=0;endArrow=block;endFill=1;" parent="1" source="zF8FcGyKqAUuClYapq0u-5" target="zF8FcGyKqAUuClYapq0u-7" edge="1">
          <mxGeometry relative="1" as="geometry" />
        </mxCell>
        <mxCell id="zF8FcGyKqAUuClYapq0u-5" value="Get valid&lt;br&gt;guess from&lt;br&gt;player" style="shape=parallelogram;perimeter=parallelogramPerimeter;whiteSpace=wrap;html=1;fixedSize=1;" parent="1" vertex="1">
          <mxGeometry x="200" y="360" width="120" height="60" as="geometry" />
        </mxCell>
        <mxCell id="zF8FcGyKqAUuClYapq0u-12" style="edgeStyle=orthogonalEdgeStyle;rounded=0;orthogonalLoop=1;jettySize=auto;html=1;exitX=0.5;exitY=1;exitDx=0;exitDy=0;entryX=0.5;entryY=0;entryDx=0;entryDy=0;endArrow=block;endFill=1;" parent="1" source="zF8FcGyKqAUuClYapq0u-6" target="zF8FcGyKqAUuClYapq0u-9" edge="1">
          <mxGeometry relative="1" as="geometry" />
        </mxCell>
        <mxCell id="zF8FcGyKqAUuClYapq0u-14" style="edgeStyle=orthogonalEdgeStyle;rounded=0;orthogonalLoop=1;jettySize=auto;html=1;exitX=1;exitY=0.5;exitDx=0;exitDy=0;entryX=0.558;entryY=0.011;entryDx=0;entryDy=0;entryPerimeter=0;endArrow=block;endFill=1;" parent="1" source="zF8FcGyKqAUuClYapq0u-6" target="zF8FcGyKqAUuClYapq0u-10" edge="1">
          <mxGeometry relative="1" as="geometry" />
        </mxCell>
        <mxCell id="zF8FcGyKqAUuClYapq0u-6" value="Is guess&lt;br&gt;too low?" style="rhombus;whiteSpace=wrap;html=1;" parent="1" vertex="1">
          <mxGeometry x="360" y="460" width="120" height="80" as="geometry" />
        </mxCell>
        <mxCell id="zF8FcGyKqAUuClYapq0u-11" style="edgeStyle=orthogonalEdgeStyle;rounded=0;orthogonalLoop=1;jettySize=auto;html=1;exitX=0.5;exitY=1;exitDx=0;exitDy=0;entryX=0.5;entryY=0;entryDx=0;entryDy=0;endArrow=block;endFill=1;" parent="1" source="zF8FcGyKqAUuClYapq0u-7" target="zF8FcGyKqAUuClYapq0u-8" edge="1">
          <mxGeometry relative="1" as="geometry" />
        </mxCell>
        <mxCell id="zF8FcGyKqAUuClYapq0u-13" style="edgeStyle=orthogonalEdgeStyle;rounded=0;orthogonalLoop=1;jettySize=auto;html=1;exitX=1;exitY=0.5;exitDx=0;exitDy=0;entryX=0;entryY=0.5;entryDx=0;entryDy=0;endArrow=block;endFill=1;" parent="1" source="zF8FcGyKqAUuClYapq0u-7" target="zF8FcGyKqAUuClYapq0u-6" edge="1">
          <mxGeometry relative="1" as="geometry" />
        </mxCell>
        <mxCell id="zF8FcGyKqAUuClYapq0u-7" value="Is guess&lt;br&gt;too high?" style="rhombus;whiteSpace=wrap;html=1;" parent="1" vertex="1">
          <mxGeometry x="200" y="460" width="120" height="80" as="geometry" />
        </mxCell>
        <mxCell id="zF8FcGyKqAUuClYapq0u-20" style="edgeStyle=orthogonalEdgeStyle;rounded=0;orthogonalLoop=1;jettySize=auto;html=1;exitX=0.5;exitY=1;exitDx=0;exitDy=0;entryX=0.5;entryY=0;entryDx=0;entryDy=0;endArrow=block;endFill=1;" parent="1" source="zF8FcGyKqAUuClYapq0u-8" target="zF8FcGyKqAUuClYapq0u-19" edge="1">
          <mxGeometry relative="1" as="geometry" />
        </mxCell>
        <mxCell id="zF8FcGyKqAUuClYapq0u-8" value="Display&lt;br&gt;&quot;Too high&quot;" style="shape=parallelogram;perimeter=parallelogramPerimeter;whiteSpace=wrap;html=1;fixedSize=1;" parent="1" vertex="1">
          <mxGeometry x="200" y="585" width="120" height="60" as="geometry" />
        </mxCell>
        <mxCell id="zF8FcGyKqAUuClYapq0u-21" style="edgeStyle=orthogonalEdgeStyle;rounded=0;orthogonalLoop=1;jettySize=auto;html=1;exitX=0.5;exitY=1;exitDx=0;exitDy=0;endArrow=block;endFill=1;" parent="1" source="zF8FcGyKqAUuClYapq0u-9" edge="1">
          <mxGeometry relative="1" as="geometry">
            <mxPoint x="260" y="664.9999999999999" as="targetPoint" />
            <Array as="points">
              <mxPoint x="420" y="665" />
            </Array>
          </mxGeometry>
        </mxCell>
        <mxCell id="zF8FcGyKqAUuClYapq0u-9" value="Display&lt;br&gt;&quot;Too low&quot;" style="shape=parallelogram;perimeter=parallelogramPerimeter;whiteSpace=wrap;html=1;fixedSize=1;" parent="1" vertex="1">
          <mxGeometry x="360" y="585" width="120" height="60" as="geometry" />
        </mxCell>
        <mxCell id="zF8FcGyKqAUuClYapq0u-22" style="edgeStyle=orthogonalEdgeStyle;rounded=0;orthogonalLoop=1;jettySize=auto;html=1;exitX=0.5;exitY=1;exitDx=0;exitDy=0;endArrow=block;endFill=1;" parent="1" source="zF8FcGyKqAUuClYapq0u-10" edge="1">
          <mxGeometry relative="1" as="geometry">
            <mxPoint x="260" y="705" as="targetPoint" />
            <Array as="points">
              <mxPoint x="580" y="705" />
            </Array>
          </mxGeometry>
        </mxCell>
        <mxCell id="zF8FcGyKqAUuClYapq0u-10" value="Display&lt;br&gt;&quot;Correct&quot;" style="shape=parallelogram;perimeter=parallelogramPerimeter;whiteSpace=wrap;html=1;fixedSize=1;" parent="1" vertex="1">
          <mxGeometry x="520" y="585" width="120" height="60" as="geometry" />
        </mxCell>
        <mxCell id="zF8FcGyKqAUuClYapq0u-24" style="edgeStyle=orthogonalEdgeStyle;rounded=0;orthogonalLoop=1;jettySize=auto;html=1;exitX=0.5;exitY=1;exitDx=0;exitDy=0;entryX=0.5;entryY=0;entryDx=0;entryDy=0;endArrow=block;endFill=1;" parent="1" source="zF8FcGyKqAUuClYapq0u-19" target="zF8FcGyKqAUuClYapq0u-23" edge="1">
          <mxGeometry relative="1" as="geometry" />
        </mxCell>
        <mxCell id="zF8FcGyKqAUuClYapq0u-19" value="Display&lt;br&gt;stored value" style="shape=parallelogram;perimeter=parallelogramPerimeter;whiteSpace=wrap;html=1;fixedSize=1;" parent="1" vertex="1">
          <mxGeometry x="200" y="725" width="120" height="60" as="geometry" />
        </mxCell>
        <mxCell id="zF8FcGyKqAUuClYapq0u-23" value="End" style="rounded=1;whiteSpace=wrap;html=1;arcSize=50;" parent="1" vertex="1">
          <mxGeometry x="200" y="825" width="120" height="60" as="geometry" />
        </mxCell>
        <mxCell id="6SETVbjLbLlp_W03DOIz-1" value="True" style="text;html=1;strokeColor=none;fillColor=none;align=right;verticalAlign=middle;whiteSpace=wrap;rounded=0;" vertex="1" parent="1">
          <mxGeometry x="220" y="540" width="40" height="20" as="geometry" />
        </mxCell>
        <mxCell id="6SETVbjLbLlp_W03DOIz-2" value="True" style="text;html=1;strokeColor=none;fillColor=none;align=right;verticalAlign=middle;whiteSpace=wrap;rounded=0;" vertex="1" parent="1">
          <mxGeometry x="380" y="540" width="40" height="20" as="geometry" />
        </mxCell>
        <mxCell id="bjTL9TxF7u7FF3foX2qc-1" value="False" style="text;html=1;strokeColor=none;fillColor=none;align=left;verticalAlign=middle;whiteSpace=wrap;rounded=0;" vertex="1" parent="1">
          <mxGeometry x="320" y="480" width="40" height="20" as="geometry" />
        </mxCell>
        <mxCell id="bjTL9TxF7u7FF3foX2qc-2" value="False" style="text;html=1;strokeColor=none;fillColor=none;align=left;verticalAlign=middle;whiteSpace=wrap;rounded=0;" vertex="1" parent="1">
          <mxGeometry x="480" y="480" width="40" height="20" as="geometry" />
        </mxCell>
      </root>
    </mxGraphModel>
  </diagram>
  <diagram id="KS3fh7R_H3pRaA5hpMO4" name="UI-1">
    <mxGraphModel dx="874" dy="682" grid="1" gridSize="10" guides="1" tooltips="1" connect="1" arrows="1" fold="1" page="1" pageScale="1" pageWidth="583" pageHeight="413" math="0" shadow="0">
      <root>
        <mxCell id="0" />
        <mxCell id="1" parent="0" />
        <mxCell id="eNOp1JeacjaMhcD723s6-1" value="Area &amp;amp; Perimeter" style="strokeWidth=1;shadow=0;dashed=0;align=center;html=1;shape=mxgraph.mockup.containers.window;align=left;verticalAlign=top;spacingLeft=8;strokeColor2=#008cff;strokeColor3=#c4c4c4;fontColor=#333333;mainText=;fontSize=17;labelBackgroundColor=none;fillColor=#f5f5f5;strokeColor=#666666;" parent="1" vertex="1">
          <mxGeometry x="120" y="80" width="320" height="300" as="geometry" />
        </mxCell>
        <mxCell id="eNOp1JeacjaMhcD723s6-11" value="Length" style="text;html=1;strokeColor=none;fillColor=none;align=left;verticalAlign=middle;whiteSpace=wrap;rounded=0;fontSize=17;fontColor=#0000ff;" parent="1" vertex="1">
          <mxGeometry x="160" y="140" width="100" height="30" as="geometry" />
        </mxCell>
        <mxCell id="eNOp1JeacjaMhcD723s6-12" value="Breadth" style="text;html=1;strokeColor=none;fillColor=none;align=left;verticalAlign=middle;whiteSpace=wrap;rounded=0;fontSize=17;fontColor=#0000ff;" parent="1" vertex="1">
          <mxGeometry x="160" y="180" width="100" height="30" as="geometry" />
        </mxCell>
        <mxCell id="eNOp1JeacjaMhcD723s6-14" value="Calculate" style="strokeWidth=1;shadow=0;dashed=0;align=center;html=1;shape=mxgraph.mockup.buttons.button;strokeColor=#666666;fontColor=#ffffff;mainText=;buttonStyle=round;fontSize=17;fontStyle=1;fillColor=#008cff;whiteSpace=wrap;" parent="1" vertex="1">
          <mxGeometry x="205" y="220" width="150" height="50" as="geometry" />
        </mxCell>
        <mxCell id="eNOp1JeacjaMhcD723s6-15" value="Perimeter" style="text;html=1;strokeColor=none;fillColor=none;align=left;verticalAlign=middle;whiteSpace=wrap;rounded=0;fontSize=17;fontColor=#0000ff;" parent="1" vertex="1">
          <mxGeometry x="160" y="280" width="100" height="30" as="geometry" />
        </mxCell>
        <mxCell id="eNOp1JeacjaMhcD723s6-16" value="Area" style="text;html=1;strokeColor=none;fillColor=none;align=left;verticalAlign=middle;whiteSpace=wrap;rounded=0;fontSize=17;fontColor=#0000ff;" parent="1" vertex="1">
          <mxGeometry x="160" y="320" width="100" height="30" as="geometry" />
        </mxCell>
        <mxCell id="eNOp1JeacjaMhcD723s6-18" value="m" style="text;html=1;strokeColor=none;fillColor=none;align=left;verticalAlign=middle;whiteSpace=wrap;rounded=0;fontSize=17;fontColor=#0000ff;spacingLeft=6;" parent="1" vertex="1">
          <mxGeometry x="380" y="280" width="50" height="30" as="geometry" />
        </mxCell>
        <mxCell id="eNOp1JeacjaMhcD723s6-19" value="m&lt;sup&gt;2&lt;/sup&gt;" style="text;html=1;strokeColor=none;fillColor=none;align=left;verticalAlign=middle;whiteSpace=wrap;rounded=0;fontSize=17;fontColor=#0000FF;spacingLeft=6;" parent="1" vertex="1">
          <mxGeometry x="380" y="320" width="50" height="30" as="geometry" />
        </mxCell>
        <mxCell id="eNOp1JeacjaMhcD723s6-20" value="&lt;font color=&quot;#ff0000&quot;&gt;4&lt;/font&gt;" style="rounded=0;whiteSpace=wrap;html=1;fontSize=17;align=right;strokeWidth=2;spacingRight=6;strokeColor=#ff00ff;" parent="1" vertex="1">
          <mxGeometry x="280" y="140" width="100" height="30" as="geometry" />
        </mxCell>
        <mxCell id="eNOp1JeacjaMhcD723s6-21" value="&lt;font color=&quot;#ff0000&quot;&gt;2&lt;/font&gt;" style="rounded=0;whiteSpace=wrap;html=1;fontSize=17;align=right;strokeWidth=2;spacingRight=6;strokeColor=#ff00ff;" parent="1" vertex="1">
          <mxGeometry x="280" y="180" width="100" height="30" as="geometry" />
        </mxCell>
        <mxCell id="eNOp1JeacjaMhcD723s6-22" value="&lt;font color=&quot;#ff0000&quot;&gt;12&lt;/font&gt;" style="rounded=0;whiteSpace=wrap;html=1;fontSize=17;align=right;fillColor=none;strokeColor=#FF00FF;strokeWidth=2;spacingRight=6;fontStyle=1" parent="1" vertex="1">
          <mxGeometry x="280" y="280" width="100" height="30" as="geometry" />
        </mxCell>
        <mxCell id="eNOp1JeacjaMhcD723s6-23" value="&lt;font color=&quot;#ff0000&quot;&gt;8&lt;/font&gt;" style="rounded=0;whiteSpace=wrap;html=1;fontSize=17;align=right;fillColor=none;strokeColor=#FF00FF;strokeWidth=2;spacingRight=6;fontStyle=1" parent="1" vertex="1">
          <mxGeometry x="280" y="320" width="100" height="30" as="geometry" />
        </mxCell>
      </root>
    </mxGraphModel>
  </diagram>
  <diagram id="l5kN8qWh3AcNyTq7SH-6" name="UI-2">
    <mxGraphModel dx="1103" dy="846" grid="1" gridSize="10" guides="1" tooltips="1" connect="1" arrows="1" fold="1" page="1" pageScale="1" pageWidth="827" pageHeight="583" math="0" shadow="0">
      <root>
        <mxCell id="0" />
        <mxCell id="1" parent="0" />
        <mxCell id="ArZeO3i3RUs2KVa3jbmw-1" value="Dice Roller" style="strokeWidth=1;shadow=0;dashed=0;align=center;html=1;shape=mxgraph.mockup.containers.window;align=left;verticalAlign=top;spacingLeft=8;strokeColor2=#008cff;strokeColor3=#c4c4c4;fontColor=#666666;mainText=;fontSize=17;labelBackgroundColor=none;" vertex="1" parent="1">
          <mxGeometry x="280" y="80" width="300" height="300" as="geometry" />
        </mxCell>
        <mxCell id="ArZeO3i3RUs2KVa3jbmw-2" value="Roll Dice" style="rounded=1;html=1;shadow=0;dashed=0;whiteSpace=wrap;fontSize=24;fillColor=#E6E6E6;align=center;strokeColor=#E6E6E6;fontColor=#333333;" vertex="1" parent="1">
          <mxGeometry x="371.13" y="280" width="117.75" height="30" as="geometry" />
        </mxCell>
        <mxCell id="ArZeO3i3RUs2KVa3jbmw-3" value="&lt;font style=&quot;font-size: 90px;&quot;&gt;3&lt;/font&gt;" style="text;html=1;strokeColor=none;fillColor=none;align=center;verticalAlign=middle;whiteSpace=wrap;rounded=0;fontSize=90;" vertex="1" parent="1">
          <mxGeometry x="376.24" y="140" width="107.51" height="90" as="geometry" />
        </mxCell>
        <mxCell id="ArZeO3i3RUs2KVa3jbmw-4" value="&lt;font style=&quot;font-size: 18px;&quot;&gt;Button&lt;/font&gt;" style="text;html=1;strokeColor=none;fillColor=none;align=left;verticalAlign=middle;whiteSpace=wrap;rounded=0;fontSize=12;spacingLeft=5;" vertex="1" parent="1">
          <mxGeometry x="625" y="280" width="60" height="30" as="geometry" />
        </mxCell>
        <mxCell id="ArZeO3i3RUs2KVa3jbmw-5" value="&lt;font style=&quot;font-size: 18px;&quot;&gt;Label&lt;/font&gt;" style="text;html=1;strokeColor=none;fillColor=none;align=left;verticalAlign=middle;whiteSpace=wrap;rounded=0;fontSize=18;spacingLeft=5;" vertex="1" parent="1">
          <mxGeometry x="625" y="170" width="60" height="30" as="geometry" />
        </mxCell>
        <mxCell id="ArZeO3i3RUs2KVa3jbmw-6" value="" style="shape=flexArrow;endArrow=classic;html=1;rounded=0;fontSize=12;entryX=1;entryY=0.5;entryDx=0;entryDy=0;exitX=0;exitY=0.5;exitDx=0;exitDy=0;fillColor=#DEDEDE;" edge="1" parent="1" source="ArZeO3i3RUs2KVa3jbmw-4" target="ArZeO3i3RUs2KVa3jbmw-2">
          <mxGeometry width="50" height="50" relative="1" as="geometry">
            <mxPoint x="505" y="360" as="sourcePoint" />
            <mxPoint x="555" y="310" as="targetPoint" />
            <Array as="points" />
          </mxGeometry>
        </mxCell>
        <mxCell id="ArZeO3i3RUs2KVa3jbmw-7" value="" style="shape=flexArrow;endArrow=classic;html=1;rounded=0;fontSize=12;entryX=1;entryY=0.5;entryDx=0;entryDy=0;exitX=0;exitY=0.5;exitDx=0;exitDy=0;fillColor=#DEDEDE;" edge="1" parent="1" source="ArZeO3i3RUs2KVa3jbmw-5" target="ArZeO3i3RUs2KVa3jbmw-3">
          <mxGeometry width="50" height="50" relative="1" as="geometry">
            <mxPoint x="625" y="185" as="sourcePoint" />
            <mxPoint x="535" y="184.5" as="targetPoint" />
            <Array as="points" />
          </mxGeometry>
        </mxCell>
        <mxCell id="ArZeO3i3RUs2KVa3jbmw-8" value="&lt;font color=&quot;#ff0000&quot;&gt;Tkinter&lt;/font&gt;" style="text;html=1;strokeColor=none;fillColor=none;align=center;verticalAlign=middle;whiteSpace=wrap;rounded=0;fontSize=18;fontStyle=1" vertex="1" parent="1">
          <mxGeometry x="400.01" y="390" width="60" height="30" as="geometry" />
        </mxCell>
        <mxCell id="ArZeO3i3RUs2KVa3jbmw-9" value="Press the button and a random dice value is displayed." style="rounded=0;whiteSpace=wrap;html=1;fontSize=12;fontColor=default;align=center;spacing=5;dashed=1;" vertex="1" parent="1">
          <mxGeometry x="280" y="430" width="305" height="50" as="geometry" />
        </mxCell>
      </root>
    </mxGraphModel>
  </diagram>
  <diagram id="VFwl1JzrrvfCQ-DADYDB" name="Page-4">
    <mxGraphModel dx="1886" dy="844" grid="1" gridSize="10" guides="1" tooltips="1" connect="1" arrows="1" fold="1" page="1" pageScale="1" pageWidth="827" pageHeight="583" math="0" shadow="0">
      <root>
        <mxCell id="0" />
        <mxCell id="1" parent="0" />
        <mxCell id="t6dyULWLPYS_b3xidiUq-1" value="Start" style="strokeWidth=1;html=1;shape=mxgraph.flowchart.start_1;whiteSpace=wrap;" vertex="1" parent="1">
          <mxGeometry x="280" y="120" width="80" height="40" as="geometry" />
        </mxCell>
        <mxCell id="t6dyULWLPYS_b3xidiUq-17" style="edgeStyle=orthogonalEdgeStyle;shape=connector;rounded=0;orthogonalLoop=1;jettySize=auto;html=1;exitX=0.5;exitY=1;exitDx=0;exitDy=0;exitPerimeter=0;entryX=0.5;entryY=0;entryDx=0;entryDy=0;labelBackgroundColor=default;strokeColor=default;align=center;verticalAlign=middle;fontFamily=Helvetica;fontSize=11;fontColor=default;endArrow=block;endFill=1;" edge="1" parent="1" source="t6dyULWLPYS_b3xidiUq-2" target="t6dyULWLPYS_b3xidiUq-5">
          <mxGeometry relative="1" as="geometry" />
        </mxCell>
        <mxCell id="t6dyULWLPYS_b3xidiUq-2" value="Condition&lt;br&gt;1" style="strokeWidth=1;html=1;shape=mxgraph.flowchart.decision;whiteSpace=wrap;" vertex="1" parent="1">
          <mxGeometry x="280" y="200" width="80" height="80" as="geometry" />
        </mxCell>
        <mxCell id="t6dyULWLPYS_b3xidiUq-15" style="edgeStyle=orthogonalEdgeStyle;shape=connector;rounded=0;orthogonalLoop=1;jettySize=auto;html=1;exitX=1;exitY=0.5;exitDx=0;exitDy=0;exitPerimeter=0;entryX=0.5;entryY=0;entryDx=0;entryDy=0;labelBackgroundColor=default;strokeColor=default;align=center;verticalAlign=middle;fontFamily=Helvetica;fontSize=11;fontColor=default;endArrow=block;endFill=1;" edge="1" parent="1" source="t6dyULWLPYS_b3xidiUq-3" target="t6dyULWLPYS_b3xidiUq-7">
          <mxGeometry relative="1" as="geometry" />
        </mxCell>
        <mxCell id="t6dyULWLPYS_b3xidiUq-16" style="edgeStyle=orthogonalEdgeStyle;shape=connector;rounded=0;orthogonalLoop=1;jettySize=auto;html=1;exitX=0.5;exitY=1;exitDx=0;exitDy=0;exitPerimeter=0;entryX=0.5;entryY=0;entryDx=0;entryDy=0;labelBackgroundColor=default;strokeColor=default;align=center;verticalAlign=middle;fontFamily=Helvetica;fontSize=11;fontColor=default;endArrow=block;endFill=1;" edge="1" parent="1" source="t6dyULWLPYS_b3xidiUq-3" target="t6dyULWLPYS_b3xidiUq-6">
          <mxGeometry relative="1" as="geometry" />
        </mxCell>
        <mxCell id="t6dyULWLPYS_b3xidiUq-3" value="Condition&lt;br&gt;2" style="strokeWidth=1;html=1;shape=mxgraph.flowchart.decision;whiteSpace=wrap;" vertex="1" parent="1">
          <mxGeometry x="400" y="270" width="80" height="80" as="geometry" />
        </mxCell>
        <mxCell id="t6dyULWLPYS_b3xidiUq-5" value="Statement 1" style="rounded=0;whiteSpace=wrap;html=1;strokeWidth=1;" vertex="1" parent="1">
          <mxGeometry x="280" y="380" width="80" height="40" as="geometry" />
        </mxCell>
        <mxCell id="t6dyULWLPYS_b3xidiUq-6" value="Statement 2" style="rounded=0;whiteSpace=wrap;html=1;strokeWidth=1;" vertex="1" parent="1">
          <mxGeometry x="400" y="380" width="80" height="40" as="geometry" />
        </mxCell>
        <mxCell id="t6dyULWLPYS_b3xidiUq-7" value="Statement 3" style="rounded=0;whiteSpace=wrap;html=1;strokeWidth=1;" vertex="1" parent="1">
          <mxGeometry x="520" y="380" width="80" height="40" as="geometry" />
        </mxCell>
        <mxCell id="t6dyULWLPYS_b3xidiUq-8" value="Stop" style="strokeWidth=1;html=1;shape=mxgraph.flowchart.start_1;whiteSpace=wrap;" vertex="1" parent="1">
          <mxGeometry x="400" y="500" width="80" height="40" as="geometry" />
        </mxCell>
        <mxCell id="t6dyULWLPYS_b3xidiUq-11" value="" style="verticalLabelPosition=bottom;verticalAlign=top;html=1;shape=mxgraph.flowchart.on-page_reference;" vertex="1" parent="1">
          <mxGeometry x="430" y="450" width="20" height="20" as="geometry" />
        </mxCell>
        <mxCell id="t6dyULWLPYS_b3xidiUq-12" style="edgeStyle=orthogonalEdgeStyle;rounded=0;orthogonalLoop=1;jettySize=auto;html=1;exitX=0.5;exitY=1;exitDx=0;exitDy=0;exitPerimeter=0;entryX=0.5;entryY=0;entryDx=0;entryDy=0;entryPerimeter=0;endArrow=block;endFill=1;" edge="1" parent="1" source="t6dyULWLPYS_b3xidiUq-1" target="t6dyULWLPYS_b3xidiUq-2">
          <mxGeometry relative="1" as="geometry" />
        </mxCell>
        <mxCell id="t6dyULWLPYS_b3xidiUq-14" style="edgeStyle=orthogonalEdgeStyle;shape=connector;rounded=0;orthogonalLoop=1;jettySize=auto;html=1;exitX=1;exitY=0.5;exitDx=0;exitDy=0;exitPerimeter=0;entryX=0.5;entryY=0;entryDx=0;entryDy=0;entryPerimeter=0;labelBackgroundColor=default;strokeColor=default;align=center;verticalAlign=middle;fontFamily=Helvetica;fontSize=11;fontColor=default;endArrow=block;endFill=1;" edge="1" parent="1" source="t6dyULWLPYS_b3xidiUq-2" target="t6dyULWLPYS_b3xidiUq-3">
          <mxGeometry relative="1" as="geometry" />
        </mxCell>
        <mxCell id="t6dyULWLPYS_b3xidiUq-18" style="edgeStyle=orthogonalEdgeStyle;shape=connector;rounded=0;orthogonalLoop=1;jettySize=auto;html=1;exitX=0.5;exitY=1;exitDx=0;exitDy=0;entryX=0;entryY=0.5;entryDx=0;entryDy=0;entryPerimeter=0;labelBackgroundColor=default;strokeColor=default;align=center;verticalAlign=middle;fontFamily=Helvetica;fontSize=11;fontColor=default;endArrow=block;endFill=1;" edge="1" parent="1" source="t6dyULWLPYS_b3xidiUq-5" target="t6dyULWLPYS_b3xidiUq-11">
          <mxGeometry relative="1" as="geometry" />
        </mxCell>
        <mxCell id="t6dyULWLPYS_b3xidiUq-19" style="edgeStyle=orthogonalEdgeStyle;shape=connector;rounded=0;orthogonalLoop=1;jettySize=auto;html=1;exitX=0.5;exitY=1;exitDx=0;exitDy=0;entryX=0.5;entryY=0;entryDx=0;entryDy=0;entryPerimeter=0;labelBackgroundColor=default;strokeColor=default;align=center;verticalAlign=middle;fontFamily=Helvetica;fontSize=11;fontColor=default;endArrow=block;endFill=1;" edge="1" parent="1" source="t6dyULWLPYS_b3xidiUq-6" target="t6dyULWLPYS_b3xidiUq-11">
          <mxGeometry relative="1" as="geometry" />
        </mxCell>
        <mxCell id="t6dyULWLPYS_b3xidiUq-20" style="edgeStyle=orthogonalEdgeStyle;shape=connector;rounded=0;orthogonalLoop=1;jettySize=auto;html=1;exitX=0.5;exitY=1;exitDx=0;exitDy=0;entryX=1;entryY=0.5;entryDx=0;entryDy=0;entryPerimeter=0;labelBackgroundColor=default;strokeColor=default;align=center;verticalAlign=middle;fontFamily=Helvetica;fontSize=11;fontColor=default;endArrow=block;endFill=1;" edge="1" parent="1" source="t6dyULWLPYS_b3xidiUq-7" target="t6dyULWLPYS_b3xidiUq-11">
          <mxGeometry relative="1" as="geometry" />
        </mxCell>
        <mxCell id="t6dyULWLPYS_b3xidiUq-21" style="edgeStyle=orthogonalEdgeStyle;shape=connector;rounded=0;orthogonalLoop=1;jettySize=auto;html=1;exitX=0.5;exitY=1;exitDx=0;exitDy=0;exitPerimeter=0;entryX=0.5;entryY=0;entryDx=0;entryDy=0;entryPerimeter=0;labelBackgroundColor=default;strokeColor=default;align=center;verticalAlign=middle;fontFamily=Helvetica;fontSize=11;fontColor=default;endArrow=block;endFill=1;" edge="1" parent="1" source="t6dyULWLPYS_b3xidiUq-11" target="t6dyULWLPYS_b3xidiUq-8">
          <mxGeometry relative="1" as="geometry" />
        </mxCell>
        <mxCell id="t6dyULWLPYS_b3xidiUq-23" value="True" style="text;html=1;strokeColor=none;fillColor=none;align=right;verticalAlign=middle;whiteSpace=wrap;rounded=0;fontSize=11;fontFamily=Helvetica;fontColor=default;spacingLeft=2;spacingRight=2;" vertex="1" parent="1">
          <mxGeometry x="280" y="280" width="40" height="30" as="geometry" />
        </mxCell>
        <mxCell id="t6dyULWLPYS_b3xidiUq-24" value="True" style="text;html=1;strokeColor=none;fillColor=none;align=right;verticalAlign=middle;whiteSpace=wrap;rounded=0;fontSize=11;fontFamily=Helvetica;fontColor=default;spacingLeft=2;spacingRight=2;" vertex="1" parent="1">
          <mxGeometry x="400" y="350" width="40" height="30" as="geometry" />
        </mxCell>
        <mxCell id="t6dyULWLPYS_b3xidiUq-25" value="False" style="text;html=1;strokeColor=none;fillColor=none;align=right;verticalAlign=bottom;whiteSpace=wrap;rounded=0;fontSize=11;fontFamily=Helvetica;fontColor=default;spacingLeft=2;spacingRight=2;" vertex="1" parent="1">
          <mxGeometry x="360" y="210" width="40" height="30" as="geometry" />
        </mxCell>
        <mxCell id="t6dyULWLPYS_b3xidiUq-26" value="False" style="text;html=1;strokeColor=none;fillColor=none;align=right;verticalAlign=bottom;whiteSpace=wrap;rounded=0;fontSize=11;fontFamily=Helvetica;fontColor=default;spacingLeft=2;spacingRight=2;" vertex="1" parent="1">
          <mxGeometry x="480" y="280" width="40" height="30" as="geometry" />
        </mxCell>
      </root>
    </mxGraphModel>
  </diagram>
  <diagram id="Obj1RDSv77aywoY5yeyv" name="Page-5">
    <mxGraphModel dx="874" dy="682" grid="1" gridSize="10" guides="1" tooltips="1" connect="1" arrows="1" fold="1" page="1" pageScale="1" pageWidth="583" pageHeight="827" math="0" shadow="0">
      <root>
        <mxCell id="WIyWlLk6GJQsqaUBKTNV-0" />
        <mxCell id="WIyWlLk6GJQsqaUBKTNV-1" parent="WIyWlLk6GJQsqaUBKTNV-0" />
        <mxCell id="YX2WGcEX5DHHY4jCWO2C-4" style="edgeStyle=orthogonalEdgeStyle;rounded=0;orthogonalLoop=1;jettySize=auto;html=1;exitX=0.5;exitY=1;exitDx=0;exitDy=0;entryX=0.5;entryY=0;entryDx=0;entryDy=0;exitPerimeter=0;endArrow=block;endFill=1;" parent="WIyWlLk6GJQsqaUBKTNV-1" source="AwOCLA496xzCAIetc88c-0" target="YX2WGcEX5DHHY4jCWO2C-1" edge="1">
          <mxGeometry relative="1" as="geometry">
            <mxPoint x="240" y="140" as="sourcePoint" />
          </mxGeometry>
        </mxCell>
        <mxCell id="YX2WGcEX5DHHY4jCWO2C-10" style="edgeStyle=orthogonalEdgeStyle;rounded=0;orthogonalLoop=1;jettySize=auto;html=1;exitX=0.5;exitY=1;exitDx=0;exitDy=0;entryX=0.5;entryY=0;entryDx=0;entryDy=0;endArrow=block;endFill=1;" parent="WIyWlLk6GJQsqaUBKTNV-1" source="YX2WGcEX5DHHY4jCWO2C-1" target="YX2WGcEX5DHHY4jCWO2C-5" edge="1">
          <mxGeometry relative="1" as="geometry" />
        </mxCell>
        <mxCell id="YX2WGcEX5DHHY4jCWO2C-1" value="set counter&lt;br&gt;initially 1" style="shape=hexagon;perimeter=hexagonPerimeter2;whiteSpace=wrap;html=1;" parent="WIyWlLk6GJQsqaUBKTNV-1" vertex="1">
          <mxGeometry x="185" y="180" width="110" height="60" as="geometry" />
        </mxCell>
        <mxCell id="YX2WGcEX5DHHY4jCWO2C-12" style="edgeStyle=orthogonalEdgeStyle;rounded=0;orthogonalLoop=1;jettySize=auto;html=1;exitX=0.5;exitY=1;exitDx=0;exitDy=0;entryX=0.5;entryY=0;entryDx=0;entryDy=0;endArrow=block;endFill=1;" parent="WIyWlLk6GJQsqaUBKTNV-1" source="YX2WGcEX5DHHY4jCWO2C-5" target="YX2WGcEX5DHHY4jCWO2C-11" edge="1">
          <mxGeometry relative="1" as="geometry" />
        </mxCell>
        <mxCell id="YX2WGcEX5DHHY4jCWO2C-5" value="display counter" style="shape=parallelogram;perimeter=parallelogramPerimeter;whiteSpace=wrap;html=1;" parent="WIyWlLk6GJQsqaUBKTNV-1" vertex="1">
          <mxGeometry x="170" y="280" width="140" height="60" as="geometry" />
        </mxCell>
        <mxCell id="YX2WGcEX5DHHY4jCWO2C-6" value="" style="group" parent="WIyWlLk6GJQsqaUBKTNV-1" connectable="0" vertex="1">
          <mxGeometry x="80" y="190" width="80" height="40" as="geometry" />
        </mxCell>
        <mxCell id="YX2WGcEX5DHHY4jCWO2C-2" value="" style="strokeWidth=2;html=1;shape=mxgraph.flowchart.annotation_2;align=left;labelPosition=right;pointerEvents=1;rotation=-180;" parent="YX2WGcEX5DHHY4jCWO2C-6" vertex="1">
          <mxGeometry x="40" width="40" height="40" as="geometry" />
        </mxCell>
        <mxCell id="YX2WGcEX5DHHY4jCWO2C-3" value="Initialise variables" style="text;html=1;strokeColor=none;fillColor=none;align=left;verticalAlign=middle;whiteSpace=wrap;rounded=0;" parent="YX2WGcEX5DHHY4jCWO2C-6" vertex="1">
          <mxGeometry y="10" width="40" height="20" as="geometry" />
        </mxCell>
        <mxCell id="YX2WGcEX5DHHY4jCWO2C-7" value="" style="group" parent="WIyWlLk6GJQsqaUBKTNV-1" connectable="0" vertex="1">
          <mxGeometry x="80" y="290" width="80" height="40" as="geometry" />
        </mxCell>
        <mxCell id="YX2WGcEX5DHHY4jCWO2C-8" value="" style="strokeWidth=2;html=1;shape=mxgraph.flowchart.annotation_2;align=left;labelPosition=right;pointerEvents=1;rotation=-180;" parent="YX2WGcEX5DHHY4jCWO2C-7" vertex="1">
          <mxGeometry x="40" width="40" height="40" as="geometry" />
        </mxCell>
        <mxCell id="YX2WGcEX5DHHY4jCWO2C-9" value="output" style="text;html=1;strokeColor=none;fillColor=none;align=left;verticalAlign=middle;whiteSpace=wrap;rounded=0;" parent="YX2WGcEX5DHHY4jCWO2C-7" vertex="1">
          <mxGeometry y="10" width="40" height="20" as="geometry" />
        </mxCell>
        <mxCell id="YX2WGcEX5DHHY4jCWO2C-14" style="edgeStyle=orthogonalEdgeStyle;rounded=0;orthogonalLoop=1;jettySize=auto;html=1;exitX=0.5;exitY=1;exitDx=0;exitDy=0;entryX=0.5;entryY=0;entryDx=0;entryDy=0;entryPerimeter=0;endArrow=block;endFill=1;" parent="WIyWlLk6GJQsqaUBKTNV-1" source="YX2WGcEX5DHHY4jCWO2C-11" target="AwOCLA496xzCAIetc88c-1" edge="1">
          <mxGeometry relative="1" as="geometry">
            <mxPoint x="240" y="500" as="targetPoint" />
          </mxGeometry>
        </mxCell>
        <mxCell id="YX2WGcEX5DHHY4jCWO2C-18" style="edgeStyle=orthogonalEdgeStyle;rounded=0;orthogonalLoop=1;jettySize=auto;html=1;exitX=1;exitY=0.5;exitDx=0;exitDy=0;entryX=0.5;entryY=1;entryDx=0;entryDy=0;endArrow=block;endFill=1;" parent="WIyWlLk6GJQsqaUBKTNV-1" source="YX2WGcEX5DHHY4jCWO2C-11" target="YX2WGcEX5DHHY4jCWO2C-17" edge="1">
          <mxGeometry relative="1" as="geometry" />
        </mxCell>
        <mxCell id="YX2WGcEX5DHHY4jCWO2C-11" value="counter = 10?" style="rhombus;whiteSpace=wrap;html=1;" parent="WIyWlLk6GJQsqaUBKTNV-1" vertex="1">
          <mxGeometry x="190" y="380" width="100" height="80" as="geometry" />
        </mxCell>
        <mxCell id="YX2WGcEX5DHHY4jCWO2C-16" value="yes" style="text;html=1;strokeColor=none;fillColor=none;align=center;verticalAlign=middle;whiteSpace=wrap;rounded=0;" parent="WIyWlLk6GJQsqaUBKTNV-1" vertex="1">
          <mxGeometry x="240" y="460" width="40" height="20" as="geometry" />
        </mxCell>
        <mxCell id="YX2WGcEX5DHHY4jCWO2C-19" style="edgeStyle=orthogonalEdgeStyle;rounded=0;orthogonalLoop=1;jettySize=auto;html=1;exitX=0.5;exitY=0;exitDx=0;exitDy=0;endArrow=block;endFill=1;" parent="WIyWlLk6GJQsqaUBKTNV-1" source="YX2WGcEX5DHHY4jCWO2C-17" edge="1">
          <mxGeometry relative="1" as="geometry">
            <mxPoint x="240" y="260" as="targetPoint" />
            <Array as="points">
              <mxPoint x="400" y="260" />
              <mxPoint x="240" y="260" />
            </Array>
          </mxGeometry>
        </mxCell>
        <mxCell id="YX2WGcEX5DHHY4jCWO2C-17" value="increment counter" style="rounded=0;whiteSpace=wrap;html=1;" parent="WIyWlLk6GJQsqaUBKTNV-1" vertex="1">
          <mxGeometry x="360" y="280" width="80" height="40" as="geometry" />
        </mxCell>
        <mxCell id="YX2WGcEX5DHHY4jCWO2C-20" value="" style="strokeWidth=2;html=1;shape=mxgraph.flowchart.annotation_2;align=left;labelPosition=right;pointerEvents=1;" parent="WIyWlLk6GJQsqaUBKTNV-1" vertex="1">
          <mxGeometry x="450" y="280" width="40" height="40" as="geometry" />
        </mxCell>
        <mxCell id="YX2WGcEX5DHHY4jCWO2C-21" value="add 1" style="text;html=1;strokeColor=none;fillColor=none;align=left;verticalAlign=middle;whiteSpace=wrap;rounded=0;" parent="WIyWlLk6GJQsqaUBKTNV-1" vertex="1">
          <mxGeometry x="480" y="290" width="40" height="20" as="geometry" />
        </mxCell>
        <mxCell id="EeezzcDVMZYrr4BET8XU-0" value="no" style="text;html=1;strokeColor=none;fillColor=none;align=center;verticalAlign=middle;whiteSpace=wrap;rounded=0;" parent="WIyWlLk6GJQsqaUBKTNV-1" vertex="1">
          <mxGeometry x="290" y="400" width="40" height="20" as="geometry" />
        </mxCell>
        <mxCell id="AwOCLA496xzCAIetc88c-0" value="start" style="strokeWidth=1;html=1;shape=mxgraph.flowchart.terminator;whiteSpace=wrap;" parent="WIyWlLk6GJQsqaUBKTNV-1" vertex="1">
          <mxGeometry x="200" y="100" width="80" height="40" as="geometry" />
        </mxCell>
        <mxCell id="AwOCLA496xzCAIetc88c-1" value="end" style="strokeWidth=1;html=1;shape=mxgraph.flowchart.terminator;whiteSpace=wrap;" parent="WIyWlLk6GJQsqaUBKTNV-1" vertex="1">
          <mxGeometry x="200" y="490" width="80" height="40" as="geometry" />
        </mxCell>
      </root>
    </mxGraphModel>
  </diagram>
  <diagram id="9MO8m5mvqML_VX0lmls2" name="Page-6">
    <mxGraphModel dx="874" dy="682" grid="1" gridSize="10" guides="1" tooltips="1" connect="1" arrows="1" fold="1" page="1" pageScale="1" pageWidth="583" pageHeight="827" math="0" shadow="0">
      <root>
        <mxCell id="B-qHStJCQpr1-5ngp_00-0" />
        <mxCell id="B-qHStJCQpr1-5ngp_00-1" parent="B-qHStJCQpr1-5ngp_00-0" />
        <mxCell id="B-qHStJCQpr1-5ngp_00-2" style="edgeStyle=orthogonalEdgeStyle;rounded=0;orthogonalLoop=1;jettySize=auto;html=1;exitX=0.5;exitY=1;exitDx=0;exitDy=0;entryX=0.5;entryY=0;entryDx=0;entryDy=0;exitPerimeter=0;endArrow=block;endFill=1;" parent="B-qHStJCQpr1-5ngp_00-1" source="B-qHStJCQpr1-5ngp_00-22" target="B-qHStJCQpr1-5ngp_00-4" edge="1">
          <mxGeometry relative="1" as="geometry">
            <mxPoint x="240" y="140" as="sourcePoint" />
          </mxGeometry>
        </mxCell>
        <mxCell id="B-qHStJCQpr1-5ngp_00-3" style="edgeStyle=orthogonalEdgeStyle;rounded=0;orthogonalLoop=1;jettySize=auto;html=1;exitX=0.5;exitY=1;exitDx=0;exitDy=0;entryX=0.5;entryY=0;entryDx=0;entryDy=0;endArrow=block;endFill=1;" parent="B-qHStJCQpr1-5ngp_00-1" source="B-qHStJCQpr1-5ngp_00-4" target="B-qHStJCQpr1-5ngp_00-6" edge="1">
          <mxGeometry relative="1" as="geometry" />
        </mxCell>
        <mxCell id="B-qHStJCQpr1-5ngp_00-4" value="set counter&lt;br&gt;initially 0" style="shape=hexagon;perimeter=hexagonPerimeter2;whiteSpace=wrap;html=1;" parent="B-qHStJCQpr1-5ngp_00-1" vertex="1">
          <mxGeometry x="185" y="180" width="110" height="60" as="geometry" />
        </mxCell>
        <mxCell id="B-qHStJCQpr1-5ngp_00-5" style="edgeStyle=orthogonalEdgeStyle;rounded=0;orthogonalLoop=1;jettySize=auto;html=1;exitX=0.5;exitY=1;exitDx=0;exitDy=0;endArrow=block;endFill=1;" parent="B-qHStJCQpr1-5ngp_00-1" source="B-qHStJCQpr1-5ngp_00-6" edge="1">
          <mxGeometry relative="1" as="geometry">
            <mxPoint x="240" y="400" as="targetPoint" />
          </mxGeometry>
        </mxCell>
        <mxCell id="B-qHStJCQpr1-5ngp_00-6" value="display counter" style="shape=parallelogram;perimeter=parallelogramPerimeter;whiteSpace=wrap;html=1;" parent="B-qHStJCQpr1-5ngp_00-1" vertex="1">
          <mxGeometry x="170" y="280" width="140" height="60" as="geometry" />
        </mxCell>
        <mxCell id="B-qHStJCQpr1-5ngp_00-7" value="" style="group" parent="B-qHStJCQpr1-5ngp_00-1" connectable="0" vertex="1">
          <mxGeometry x="90" y="190" width="80" height="40" as="geometry" />
        </mxCell>
        <mxCell id="B-qHStJCQpr1-5ngp_00-8" value="" style="strokeWidth=2;html=1;shape=mxgraph.flowchart.annotation_2;align=left;labelPosition=right;pointerEvents=1;rotation=-180;" parent="B-qHStJCQpr1-5ngp_00-7" vertex="1">
          <mxGeometry x="40" width="40" height="40" as="geometry" />
        </mxCell>
        <mxCell id="B-qHStJCQpr1-5ngp_00-9" value="Initialise variables" style="text;html=1;strokeColor=none;fillColor=none;align=left;verticalAlign=middle;whiteSpace=wrap;rounded=0;" parent="B-qHStJCQpr1-5ngp_00-7" vertex="1">
          <mxGeometry y="10" width="40" height="20" as="geometry" />
        </mxCell>
        <mxCell id="B-qHStJCQpr1-5ngp_00-10" value="" style="group" parent="B-qHStJCQpr1-5ngp_00-1" connectable="0" vertex="1">
          <mxGeometry x="90" y="380" width="80" height="40" as="geometry" />
        </mxCell>
        <mxCell id="B-qHStJCQpr1-5ngp_00-11" value="" style="strokeWidth=2;html=1;shape=mxgraph.flowchart.annotation_2;align=left;labelPosition=right;pointerEvents=1;rotation=-180;" parent="B-qHStJCQpr1-5ngp_00-10" vertex="1">
          <mxGeometry x="40" width="40" height="40" as="geometry" />
        </mxCell>
        <mxCell id="B-qHStJCQpr1-5ngp_00-12" value="add 1" style="text;html=1;strokeColor=none;fillColor=none;align=left;verticalAlign=middle;whiteSpace=wrap;rounded=0;" parent="B-qHStJCQpr1-5ngp_00-10" vertex="1">
          <mxGeometry x="10" y="10" width="40" height="20" as="geometry" />
        </mxCell>
        <mxCell id="B-qHStJCQpr1-5ngp_00-13" style="edgeStyle=orthogonalEdgeStyle;rounded=0;orthogonalLoop=1;jettySize=auto;html=1;exitX=0.5;exitY=1;exitDx=0;exitDy=0;entryX=0.5;entryY=0;entryDx=0;entryDy=0;entryPerimeter=0;endArrow=block;endFill=1;" parent="B-qHStJCQpr1-5ngp_00-1" source="B-qHStJCQpr1-5ngp_00-15" target="B-qHStJCQpr1-5ngp_00-23" edge="1">
          <mxGeometry relative="1" as="geometry">
            <mxPoint x="240" y="580" as="targetPoint" />
          </mxGeometry>
        </mxCell>
        <mxCell id="B-qHStJCQpr1-5ngp_00-14" style="edgeStyle=orthogonalEdgeStyle;rounded=0;orthogonalLoop=1;jettySize=auto;html=1;exitX=1;exitY=0.5;exitDx=0;exitDy=0;endArrow=block;endFill=1;" parent="B-qHStJCQpr1-5ngp_00-1" source="B-qHStJCQpr1-5ngp_00-15" edge="1">
          <mxGeometry relative="1" as="geometry">
            <mxPoint x="240" y="260" as="targetPoint" />
            <Array as="points">
              <mxPoint x="360" y="500" />
              <mxPoint x="360" y="260" />
            </Array>
          </mxGeometry>
        </mxCell>
        <mxCell id="B-qHStJCQpr1-5ngp_00-15" value="counter = 10?" style="rhombus;whiteSpace=wrap;html=1;" parent="B-qHStJCQpr1-5ngp_00-1" vertex="1">
          <mxGeometry x="190" y="460" width="100" height="80" as="geometry" />
        </mxCell>
        <mxCell id="B-qHStJCQpr1-5ngp_00-16" value="yes" style="text;html=1;strokeColor=none;fillColor=none;align=center;verticalAlign=middle;whiteSpace=wrap;rounded=0;" parent="B-qHStJCQpr1-5ngp_00-1" vertex="1">
          <mxGeometry x="240" y="540" width="40" height="20" as="geometry" />
        </mxCell>
        <mxCell id="57Hj_A4ydNOy3cCOpxad-0" style="edgeStyle=orthogonalEdgeStyle;rounded=0;orthogonalLoop=1;jettySize=auto;html=1;exitX=0.5;exitY=1;exitDx=0;exitDy=0;entryX=0.5;entryY=0;entryDx=0;entryDy=0;endArrow=block;endFill=1;" parent="B-qHStJCQpr1-5ngp_00-1" source="B-qHStJCQpr1-5ngp_00-18" target="B-qHStJCQpr1-5ngp_00-15" edge="1">
          <mxGeometry relative="1" as="geometry" />
        </mxCell>
        <mxCell id="B-qHStJCQpr1-5ngp_00-18" value="increment counter" style="rounded=0;whiteSpace=wrap;html=1;" parent="B-qHStJCQpr1-5ngp_00-1" vertex="1">
          <mxGeometry x="200" y="380" width="80" height="40" as="geometry" />
        </mxCell>
        <mxCell id="B-qHStJCQpr1-5ngp_00-21" value="no" style="text;html=1;strokeColor=none;fillColor=none;align=center;verticalAlign=middle;whiteSpace=wrap;rounded=0;" parent="B-qHStJCQpr1-5ngp_00-1" vertex="1">
          <mxGeometry x="290" y="480" width="40" height="20" as="geometry" />
        </mxCell>
        <mxCell id="B-qHStJCQpr1-5ngp_00-22" value="start" style="strokeWidth=1;html=1;shape=mxgraph.flowchart.terminator;whiteSpace=wrap;" parent="B-qHStJCQpr1-5ngp_00-1" vertex="1">
          <mxGeometry x="200" y="100" width="80" height="40" as="geometry" />
        </mxCell>
        <mxCell id="B-qHStJCQpr1-5ngp_00-23" value="end" style="strokeWidth=1;html=1;shape=mxgraph.flowchart.terminator;whiteSpace=wrap;" parent="B-qHStJCQpr1-5ngp_00-1" vertex="1">
          <mxGeometry x="200" y="580" width="80" height="40" as="geometry" />
        </mxCell>
        <mxCell id="57Hj_A4ydNOy3cCOpxad-1" value="" style="group" parent="B-qHStJCQpr1-5ngp_00-1" connectable="0" vertex="1">
          <mxGeometry x="90" y="290" width="80" height="40" as="geometry" />
        </mxCell>
        <mxCell id="57Hj_A4ydNOy3cCOpxad-2" value="" style="strokeWidth=2;html=1;shape=mxgraph.flowchart.annotation_2;align=left;labelPosition=right;pointerEvents=1;rotation=-180;" parent="57Hj_A4ydNOy3cCOpxad-1" vertex="1">
          <mxGeometry x="40" width="40" height="40" as="geometry" />
        </mxCell>
        <mxCell id="57Hj_A4ydNOy3cCOpxad-3" value="output" style="text;html=1;strokeColor=none;fillColor=none;align=left;verticalAlign=middle;whiteSpace=wrap;rounded=0;" parent="57Hj_A4ydNOy3cCOpxad-1" vertex="1">
          <mxGeometry y="10" width="40" height="20" as="geometry" />
        </mxCell>
      </root>
    </mxGraphModel>
  </diagram>
</mxfile>
